%TF.GenerationSoftware,KiCad,Pcbnew,8.0.3*%
%TF.CreationDate,2024-06-19T13:29:18+09:00*%
%TF.ProjectId,yashica8_ver0.1.2,79617368-6963-4613-985f-766572302e31,rev?*%
%TF.SameCoordinates,Original*%
%TF.FileFunction,Copper,L1,Top*%
%TF.FilePolarity,Positive*%
%FSLAX46Y46*%
G04 Gerber Fmt 4.6, Leading zero omitted, Abs format (unit mm)*
G04 Created by KiCad (PCBNEW 8.0.3) date 2024-06-19 13:29:18*
%MOMM*%
%LPD*%
G01*
G04 APERTURE LIST*
G04 Aperture macros list*
%AMRoundRect*
0 Rectangle with rounded corners*
0 $1 Rounding radius*
0 $2 $3 $4 $5 $6 $7 $8 $9 X,Y pos of 4 corners*
0 Add a 4 corners polygon primitive as box body*
4,1,4,$2,$3,$4,$5,$6,$7,$8,$9,$2,$3,0*
0 Add four circle primitives for the rounded corners*
1,1,$1+$1,$2,$3*
1,1,$1+$1,$4,$5*
1,1,$1+$1,$6,$7*
1,1,$1+$1,$8,$9*
0 Add four rect primitives between the rounded corners*
20,1,$1+$1,$2,$3,$4,$5,0*
20,1,$1+$1,$4,$5,$6,$7,0*
20,1,$1+$1,$6,$7,$8,$9,0*
20,1,$1+$1,$8,$9,$2,$3,0*%
G04 Aperture macros list end*
%TA.AperFunction,ComponentPad*%
%ADD10R,1.800000X1.800000*%
%TD*%
%TA.AperFunction,ComponentPad*%
%ADD11C,1.800000*%
%TD*%
%TA.AperFunction,ComponentPad*%
%ADD12C,2.000000*%
%TD*%
%TA.AperFunction,SMDPad,CuDef*%
%ADD13RoundRect,0.250000X-0.350000X-0.450000X0.350000X-0.450000X0.350000X0.450000X-0.350000X0.450000X0*%
%TD*%
%TA.AperFunction,ComponentPad*%
%ADD14C,1.524000*%
%TD*%
%TA.AperFunction,SMDPad,CuDef*%
%ADD15RoundRect,0.150000X-0.512500X-0.150000X0.512500X-0.150000X0.512500X0.150000X-0.512500X0.150000X0*%
%TD*%
%TA.AperFunction,ComponentPad*%
%ADD16R,1.524000X1.524000*%
%TD*%
%TA.AperFunction,SMDPad,CuDef*%
%ADD17RoundRect,0.250000X-0.450000X0.350000X-0.450000X-0.350000X0.450000X-0.350000X0.450000X0.350000X0*%
%TD*%
%TA.AperFunction,ComponentPad*%
%ADD18R,1.600000X1.600000*%
%TD*%
%TA.AperFunction,ComponentPad*%
%ADD19O,1.600000X1.600000*%
%TD*%
%TA.AperFunction,SMDPad,CuDef*%
%ADD20RoundRect,0.381000X-0.762000X-0.381000X0.762000X-0.381000X0.762000X0.381000X-0.762000X0.381000X0*%
%TD*%
%TA.AperFunction,SMDPad,CuDef*%
%ADD21RoundRect,0.381000X0.762000X0.381000X-0.762000X0.381000X-0.762000X-0.381000X0.762000X-0.381000X0*%
%TD*%
%TA.AperFunction,ViaPad*%
%ADD22C,0.605000*%
%TD*%
%TA.AperFunction,ViaPad*%
%ADD23C,1.500000*%
%TD*%
%TA.AperFunction,Conductor*%
%ADD24C,1.000000*%
%TD*%
%TA.AperFunction,Conductor*%
%ADD25C,0.200000*%
%TD*%
%TA.AperFunction,Conductor*%
%ADD26C,0.600000*%
%TD*%
%TA.AperFunction,Conductor*%
%ADD27C,2.000000*%
%TD*%
G04 APERTURE END LIST*
D10*
%TO.P,D2,1,K*%
%TO.N,GND*%
X24780000Y23320000D03*
D11*
%TO.P,D2,2,A*%
%TO.N,Net-(D2-A)*%
X27320000Y23320000D03*
%TD*%
D12*
%TO.P,SW2,1,1*%
%TO.N,GND*%
X23800000Y7370000D03*
X23800000Y13870000D03*
%TO.P,SW2,2,2*%
%TO.N,Net-(J1-GPIO14{slash}TXD)*%
X28300000Y7370000D03*
X28300000Y13870000D03*
%TD*%
D13*
%TO.P,R5,1*%
%TO.N,Net-(R4-Pad1)*%
X-16860000Y16970000D03*
%TO.P,R5,2*%
%TO.N,GND*%
X-14860000Y16970000D03*
%TD*%
%TO.P,R7,1*%
%TO.N,+5V*%
X-16860000Y22050000D03*
%TO.P,R7,2*%
%TO.N,Net-(U3-A)*%
X-14860000Y22050000D03*
%TD*%
D14*
%TO.P,SW3,1,A*%
%TO.N,Net-(U2-IN+)*%
X-11248000Y41008000D03*
%TO.P,SW3,2,B*%
%TO.N,+9V*%
X-8748000Y41008000D03*
%TO.P,SW3,3,C*%
%TO.N,unconnected-(SW3-C-Pad3)*%
X-6248000Y41008000D03*
%TO.P,SW3,4,C*%
%TO.N,Net-(U2-IN+)*%
X-11248000Y37708000D03*
%TO.P,SW3,5,B*%
%TO.N,+9V*%
X-8748000Y37708000D03*
%TO.P,SW3,6*%
%TO.N,N/C*%
X-6248000Y37708000D03*
%TD*%
D15*
%TO.P,U1,1,-*%
%TO.N,Net-(U1--)*%
X-4684000Y35192000D03*
%TO.P,U1,2,V-*%
%TO.N,GND*%
X-4684000Y34242000D03*
%TO.P,U1,3,+*%
%TO.N,Net-(U1-+)*%
X-4684000Y33292000D03*
%TO.P,U1,4*%
%TO.N,Net-(J1-GPIO25)*%
X-2409000Y33292000D03*
%TO.P,U1,5,V+*%
%TO.N,+5V*%
X-2409000Y35192000D03*
%TD*%
D16*
%TO.P,J1,1,3V3*%
%TO.N,unconnected-(J1-3V3-Pad1)*%
X36210000Y8080000D03*
D14*
%TO.P,J1,2,5V*%
%TO.N,+5V*%
X33670000Y8080000D03*
%TO.P,J1,3,SDA/GPIO2*%
%TO.N,unconnected-(J1-SDA{slash}GPIO2-Pad3)*%
X36210000Y10620000D03*
%TO.P,J1,4,5V*%
%TO.N,+5V*%
X33670000Y10620000D03*
%TO.P,J1,5,SCL/GPIO3*%
%TO.N,unconnected-(J1-SCL{slash}GPIO3-Pad5)*%
X36210000Y13160000D03*
%TO.P,J1,6,GND*%
%TO.N,GND*%
X33670000Y13160000D03*
%TO.P,J1,7,GCLK0/GPIO4*%
%TO.N,unconnected-(J1-GCLK0{slash}GPIO4-Pad7)*%
X36210000Y15700000D03*
%TO.P,J1,8,GPIO14/TXD*%
%TO.N,Net-(J1-GPIO14{slash}TXD)*%
X33670000Y15700000D03*
%TO.P,J1,9,GND*%
%TO.N,GND*%
X36210000Y18240000D03*
%TO.P,J1,10,GPIO15/RXD*%
%TO.N,Net-(J1-GPIO15{slash}RXD)*%
X33670000Y18240000D03*
%TO.P,J1,11,GPIO17*%
%TO.N,unconnected-(J1-GPIO17-Pad11)*%
X36210000Y20780000D03*
%TO.P,J1,12,GPIO18/PWM0*%
%TO.N,Net-(J1-GPIO18{slash}PWM0)*%
X33670000Y20780000D03*
%TO.P,J1,13,GPIO27*%
%TO.N,unconnected-(J1-GPIO27-Pad13)*%
X36210000Y23320000D03*
%TO.P,J1,14,GND*%
%TO.N,GND*%
X33670000Y23320000D03*
%TO.P,J1,15,GPIO22*%
%TO.N,unconnected-(J1-GPIO22-Pad15)*%
X36210000Y25860000D03*
%TO.P,J1,16,GPIO23*%
%TO.N,unconnected-(J1-GPIO23-Pad16)*%
X33670000Y25860000D03*
%TO.P,J1,17,3V3*%
%TO.N,unconnected-(J1-3V3-Pad17)*%
X36210000Y28400000D03*
%TO.P,J1,18,GPIO24*%
%TO.N,unconnected-(J1-GPIO24-Pad18)*%
X33670000Y28400000D03*
%TO.P,J1,19,MOSI0/GPIO10*%
%TO.N,unconnected-(J1-MOSI0{slash}GPIO10-Pad19)*%
X36210000Y30940000D03*
%TO.P,J1,20,GND*%
%TO.N,GND*%
X33670000Y30940000D03*
%TO.P,J1,21,MISO0/GPIO9*%
%TO.N,unconnected-(J1-MISO0{slash}GPIO9-Pad21)*%
X36210000Y33480000D03*
%TO.P,J1,22,GPIO25*%
%TO.N,Net-(J1-GPIO25)*%
X33670000Y33480000D03*
%TO.P,J1,23,SCLK0/GPIO11*%
%TO.N,unconnected-(J1-SCLK0{slash}GPIO11-Pad23)*%
X36210000Y36020000D03*
%TO.P,J1,24,~{CE0}/GPIO8*%
%TO.N,Net-(J1-~{CE0}{slash}GPIO8)*%
X33670000Y36020000D03*
%TO.P,J1,25,GND*%
%TO.N,GND*%
X36210000Y38560000D03*
%TO.P,J1,26,~{CE1}/GPIO7*%
%TO.N,Net-(J1-~{CE1}{slash}GPIO7)*%
X33670000Y38560000D03*
%TO.P,J1,27,ID_SD/GPIO0*%
%TO.N,unconnected-(J1-ID_SD{slash}GPIO0-Pad27)*%
X36210000Y41100000D03*
%TO.P,J1,28,ID_SC/GPIO1*%
%TO.N,Net-(J1-ID_SC{slash}GPIO1)*%
X33670000Y41100000D03*
%TO.P,J1,29,GCLK1/GPIO5*%
%TO.N,unconnected-(J1-GCLK1{slash}GPIO5-Pad29)*%
X36210000Y43640000D03*
%TO.P,J1,30,GND*%
%TO.N,GND*%
X33670000Y43640000D03*
%TO.P,J1,31,GCLK2/GPIO6*%
%TO.N,unconnected-(J1-GCLK2{slash}GPIO6-Pad31)*%
X36210000Y46180000D03*
%TO.P,J1,32,PWM0/GPIO12*%
%TO.N,Net-(J1-PWM0{slash}GPIO12)*%
X33670000Y46180000D03*
%TO.P,J1,33,PWM1/GPIO13*%
%TO.N,unconnected-(J1-PWM1{slash}GPIO13-Pad33)*%
X36210000Y48720000D03*
%TO.P,J1,34,GND*%
%TO.N,GND*%
X33670000Y48720000D03*
%TO.P,J1,35,GPIO19/MISO1*%
%TO.N,unconnected-(J1-GPIO19{slash}MISO1-Pad35)*%
X36210000Y51260000D03*
%TO.P,J1,36,GPIO16*%
%TO.N,Net-(J1-GPIO16)*%
X33670000Y51260000D03*
%TO.P,J1,37,GPIO26*%
%TO.N,unconnected-(J1-GPIO26-Pad37)*%
X36210000Y53800000D03*
%TO.P,J1,38,GPIO20/MOSI1*%
%TO.N,Net-(J1-GPIO20{slash}MOSI1)*%
X33670000Y53800000D03*
%TD*%
D13*
%TO.P,R2,1*%
%TO.N,Net-(U1-+)*%
X-13050000Y29924000D03*
%TO.P,R2,2*%
%TO.N,GND*%
X-11050000Y29924000D03*
%TD*%
D14*
%TO.P,U2,1,IN+*%
%TO.N,Net-(U2-IN+)*%
X-12050000Y43640000D03*
%TO.P,U2,2,IN-*%
%TO.N,GND*%
X-12050000Y53800000D03*
%TO.P,U2,3,OUT+*%
%TO.N,+5V*%
X3190000Y43640000D03*
%TO.P,U2,4,OUT-*%
%TO.N,GND*%
X3190000Y53800000D03*
%TD*%
D10*
%TO.P,D1,1,K*%
%TO.N,GND*%
X24780000Y18240000D03*
D11*
%TO.P,D1,2,A*%
%TO.N,Net-(D1-A)*%
X27320000Y18240000D03*
%TD*%
D13*
%TO.P,R1,1*%
%TO.N,+5V*%
X-16860000Y24590000D03*
%TO.P,R1,2*%
%TO.N,Net-(U1-+)*%
X-14860000Y24590000D03*
%TD*%
D17*
%TO.P,R8,1*%
%TO.N,Net-(J1-GPIO15{slash}RXD)*%
X29860000Y19637000D03*
%TO.P,R8,2*%
%TO.N,Net-(D1-A)*%
X29860000Y17637000D03*
%TD*%
D18*
%TO.P,SW1,1*%
%TO.N,Net-(J1-~{CE0}{slash}GPIO8)*%
X8270000Y46180000D03*
D19*
%TO.P,SW1,2*%
%TO.N,Net-(J1-~{CE1}{slash}GPIO7)*%
X10810000Y46180000D03*
%TO.P,SW1,3*%
%TO.N,Net-(J1-ID_SC{slash}GPIO1)*%
X13350000Y46180000D03*
%TO.P,SW1,4*%
%TO.N,Net-(J1-PWM0{slash}GPIO12)*%
X15890000Y46180000D03*
%TO.P,SW1,5*%
%TO.N,Net-(J1-GPIO16)*%
X18430000Y46180000D03*
%TO.P,SW1,6*%
%TO.N,Net-(J1-GPIO20{slash}MOSI1)*%
X20970000Y46180000D03*
%TO.P,SW1,7*%
%TO.N,GND*%
X20970000Y53800000D03*
%TO.P,SW1,8*%
X18430000Y53800000D03*
%TO.P,SW1,9*%
X15890000Y53800000D03*
%TO.P,SW1,10*%
X13350000Y53800000D03*
%TO.P,SW1,11*%
X10810000Y53800000D03*
%TO.P,SW1,12*%
X8270000Y53800000D03*
%TD*%
D13*
%TO.P,R4,1*%
%TO.N,Net-(R4-Pad1)*%
X-16860000Y19510000D03*
%TO.P,R4,2*%
%TO.N,Net-(U1--)*%
X-14860000Y19510000D03*
%TD*%
%TO.P,R6,1*%
%TO.N,+5V*%
X-13050000Y35004000D03*
%TO.P,R6,2*%
%TO.N,Net-(J1-GPIO25)*%
X-11050000Y35004000D03*
%TD*%
D20*
%TO.P,U3,1,A*%
%TO.N,Net-(U3-A)*%
X-12050000Y10620000D03*
%TO.P,U3,2,K*%
%TO.N,GND*%
X-12050000Y8080000D03*
D21*
%TO.P,U3,3*%
%TO.N,Net-(R4-Pad1)*%
X-12050000Y5540000D03*
D20*
%TO.P,U3,4*%
%TO.N,+5V*%
X-12050000Y3000000D03*
%TD*%
D13*
%TO.P,R3,1*%
%TO.N,Net-(U1-+)*%
X-13050000Y32464000D03*
%TO.P,R3,2*%
%TO.N,Net-(J1-GPIO25)*%
X-11050000Y32464000D03*
%TD*%
D17*
%TO.P,R9,1*%
%TO.N,Net-(J1-GPIO18{slash}PWM0)*%
X29860000Y24717000D03*
%TO.P,R9,2*%
%TO.N,Net-(D2-A)*%
X29860000Y22717000D03*
%TD*%
D22*
%TO.N,GND*%
X4460000Y30940000D03*
X19700000Y37290000D03*
X-15860000Y39068000D03*
X-3160000Y46180000D03*
X29860000Y44910000D03*
X-15860000Y43640000D03*
X24780000Y53800000D03*
X7000000Y28400000D03*
X-13320000Y23320000D03*
X19700000Y39830000D03*
X-13320000Y18240000D03*
X-620000Y43640000D03*
X14620000Y48720000D03*
X-13320000Y46180000D03*
X-13320000Y15700000D03*
X-3160000Y41100000D03*
X1920000Y51260000D03*
X19700000Y42370000D03*
X-14590000Y14430000D03*
X23510000Y37290000D03*
X31130000Y34750000D03*
X9540000Y36020000D03*
X7000000Y38560000D03*
X27320000Y42370000D03*
X9540000Y48720000D03*
X4460000Y48720000D03*
X-14590000Y11890000D03*
X27320000Y37290000D03*
X-5700000Y43640000D03*
X-8240000Y46180000D03*
X-620000Y30940000D03*
X23510000Y42370000D03*
X27320000Y51260000D03*
X12080000Y28400000D03*
X14620000Y36020000D03*
X1920000Y46180000D03*
X-3160000Y28400000D03*
X22240000Y28400000D03*
X-5700000Y48720000D03*
X22240000Y51260000D03*
X9540000Y41100000D03*
X31130000Y37290000D03*
X17160000Y51260000D03*
X19700000Y34750000D03*
X-10780000Y48720000D03*
X23510000Y39830000D03*
X7000000Y51260000D03*
X-620000Y48720000D03*
X-14590000Y9350000D03*
X-13320000Y51260000D03*
X17160000Y28400000D03*
X23510000Y34750000D03*
X-13320000Y27638000D03*
X7000000Y43640000D03*
X27320000Y28400000D03*
X32400000Y47450000D03*
X-8240000Y51260000D03*
X31130000Y39830000D03*
X-620000Y39068000D03*
X12080000Y51260000D03*
X31130000Y42370000D03*
X-5954000Y34242000D03*
X27320000Y39830000D03*
X24780000Y48720000D03*
X-13320000Y13160000D03*
X1920000Y28400000D03*
X27320000Y34750000D03*
X12080000Y38560000D03*
X19700000Y48720000D03*
X-620000Y53800000D03*
D23*
%TO.N,+5V*%
X3190000Y36020000D03*
X31130000Y9350000D03*
X31130000Y11890000D03*
X3190000Y38560000D03*
D22*
%TO.N,Net-(U1--)*%
X-7732000Y31702000D03*
X-6970000Y34496000D03*
%TO.N,Net-(U3-A)*%
X-13320000Y20780000D03*
X-13320000Y11890000D03*
%TD*%
D24*
%TO.N,GND*%
X-11050000Y29924000D02*
X-11050000Y29224000D01*
D25*
X-14860000Y17198369D02*
X-14860000Y16970000D01*
X36210000Y18240000D02*
X34940000Y19510000D01*
D26*
X33670000Y48720000D02*
X32400000Y47450000D01*
X-13320000Y8080000D02*
X-14590000Y9350000D01*
X-12050000Y8080000D02*
X-13320000Y8080000D01*
D25*
X34940000Y29670000D02*
X33670000Y30940000D01*
X36210000Y38560000D02*
X34940000Y37290000D01*
X34940000Y19510000D02*
X34940000Y22050000D01*
X33670000Y23320000D02*
X34940000Y24590000D01*
X34940000Y37290000D02*
X31130000Y37290000D01*
D24*
X-11050000Y29224000D02*
X-11581000Y28693000D01*
D25*
X34940000Y24590000D02*
X34940000Y29670000D01*
X34940000Y22050000D02*
X33670000Y23320000D01*
%TO.N,Net-(D1-A)*%
X29860000Y17637000D02*
X27923000Y17637000D01*
X27923000Y17637000D02*
X27320000Y18240000D01*
%TO.N,Net-(D2-A)*%
X27923000Y22717000D02*
X27320000Y23320000D01*
X29860000Y22717000D02*
X27923000Y22717000D01*
%TO.N,+5V*%
X-17425028Y20462400D02*
X-17712400Y20175028D01*
X2362000Y35192000D02*
X3190000Y36020000D01*
X-16294972Y20462400D02*
X-17425028Y20462400D01*
X-16860000Y31194000D02*
X-16860000Y24590000D01*
X-16860000Y24590000D02*
X-16860000Y22050000D01*
X-15860000Y21050000D02*
X-15860000Y20027428D01*
X-17712400Y8662400D02*
X-12050000Y3000000D01*
D27*
X31130000Y11890000D02*
X32400000Y10620000D01*
X3190000Y38560000D02*
X3190000Y36020000D01*
D25*
X-15860000Y20027428D02*
X-16294972Y20462400D01*
X-13050000Y35004000D02*
X-11957200Y36096800D01*
X-11796000Y36274000D02*
X-3491000Y36274000D01*
X-11957200Y36096800D02*
X-11957200Y36112800D01*
D27*
X32400000Y9350000D02*
X33670000Y8080000D01*
X3190000Y42370000D02*
X3190000Y39830000D01*
X32400000Y10620000D02*
X33670000Y10620000D01*
D25*
X-17712400Y20175028D02*
X-17712400Y8662400D01*
X-2409000Y35192000D02*
X2362000Y35192000D01*
X-3491000Y36274000D02*
X-2409000Y35192000D01*
X-13050000Y35004000D02*
X-16860000Y31194000D01*
X-11957200Y36112800D02*
X-11796000Y36274000D01*
D27*
X3190000Y39830000D02*
X3190000Y38560000D01*
X3190000Y43640000D02*
X3190000Y42370000D01*
X31130000Y9350000D02*
X32400000Y9350000D01*
D25*
X-16860000Y22050000D02*
X-15860000Y21050000D01*
%TO.N,Net-(J1-GPIO25)*%
X-2409000Y33292000D02*
X3124000Y33292000D01*
X-3323900Y34871164D02*
X-3160000Y34707264D01*
X33650000Y33500000D02*
X33670000Y33480000D01*
X-3160000Y34043000D02*
X-2409000Y33292000D01*
X-3237000Y32464000D02*
X-2409000Y33292000D01*
X-11050000Y32464000D02*
X-3237000Y32464000D01*
X3124000Y33292000D02*
X3312000Y33480000D01*
X-3646400Y35744400D02*
X-3323900Y35421900D01*
X-10309600Y35744400D02*
X-3646400Y35744400D01*
X-3323900Y35421900D02*
X-3323900Y34871164D01*
X-11050000Y35004000D02*
X-10309600Y35744400D01*
X-3160000Y34707264D02*
X-3160000Y34043000D01*
X3312000Y33480000D02*
X33670000Y33480000D01*
%TO.N,Net-(J1-~{CE0}{slash}GPIO8)*%
X8270000Y46180000D02*
X18430000Y36020000D01*
X33670000Y36020000D02*
X18430000Y36020000D01*
%TO.N,Net-(J1-~{CE1}{slash}GPIO7)*%
X10810000Y46180000D02*
X18430000Y38560000D01*
X33670000Y38560000D02*
X18430000Y38560000D01*
%TO.N,Net-(J1-ID_SC{slash}GPIO1)*%
X13350000Y46180000D02*
X18430000Y41100000D01*
X33670000Y41100000D02*
X18430000Y41100000D01*
%TO.N,Net-(J1-PWM0{slash}GPIO12)*%
X30995200Y43505200D02*
X33670000Y46180000D01*
X15890000Y46180000D02*
X18564800Y43505200D01*
X18564800Y43505200D02*
X30995200Y43505200D01*
%TO.N,Net-(J1-GPIO16)*%
X27320000Y44910000D02*
X33670000Y51260000D01*
X19700000Y44910000D02*
X27320000Y44910000D01*
X18430000Y46180000D02*
X19700000Y44910000D01*
%TO.N,Net-(J1-GPIO20{slash}MOSI1)*%
X26050000Y46180000D02*
X20970000Y46180000D01*
X33670000Y53800000D02*
X26050000Y46180000D01*
%TO.N,Net-(U1-+)*%
X-10294572Y33226000D02*
X-10484972Y33416400D01*
X-14860000Y24590000D02*
X-14860000Y28114000D01*
X-13050000Y32464000D02*
X-13050000Y32734000D01*
X-10484972Y33416400D02*
X-12097600Y33416400D01*
X-4684000Y33292000D02*
X-4750000Y33226000D01*
X-14860000Y28114000D02*
X-13050000Y29924000D01*
X-13050000Y29924000D02*
X-13050000Y32464000D01*
X-4750000Y33226000D02*
X-10294572Y33226000D01*
X-12097600Y33416400D02*
X-13050000Y32464000D01*
%TO.N,Net-(R4-Pad1)*%
X-16860000Y16970000D02*
X-16860000Y9715000D01*
X-12685000Y5540000D02*
X-12050000Y5540000D01*
X-16860000Y9715000D02*
X-12685000Y5540000D01*
X-16860000Y16970000D02*
X-16860000Y19510000D01*
%TO.N,Net-(U1--)*%
X-7732000Y31702000D02*
X-7732000Y31292400D01*
X-14860000Y19510000D02*
X-13672400Y19510000D01*
X-6970000Y34518748D02*
X-6970000Y34496000D01*
X-4684000Y35192000D02*
X-6296748Y35192000D01*
X-12402400Y26622000D02*
X-12402400Y20780000D01*
X-7732000Y31292400D02*
X-12402400Y26622000D01*
X-6296748Y35192000D02*
X-6970000Y34518748D01*
X-13672400Y19510000D02*
X-12402400Y20780000D01*
%TO.N,Net-(U3-A)*%
X-14860000Y22050000D02*
X-14590000Y22050000D01*
X-12050000Y10620000D02*
X-13320000Y11890000D01*
X-14590000Y22050000D02*
X-13320000Y20780000D01*
%TO.N,Net-(J1-GPIO14{slash}TXD)*%
X28300000Y13870000D02*
X28300000Y7370000D01*
X28300000Y13870000D02*
X30130000Y15700000D01*
X30130000Y15700000D02*
X33670000Y15700000D01*
%TO.N,Net-(J1-GPIO15{slash}RXD)*%
X29860000Y19637000D02*
X32273000Y19637000D01*
X32273000Y19637000D02*
X33670000Y18240000D01*
%TO.N,Net-(J1-GPIO18{slash}PWM0)*%
X29860000Y24717000D02*
X29860000Y24590000D01*
X29860000Y24590000D02*
X33670000Y20780000D01*
D27*
%TO.N,Net-(U2-IN+)*%
X-12050000Y43640000D02*
X-12050000Y41810000D01*
X-11248000Y41008000D02*
X-11248000Y37708000D01*
X-12050000Y41810000D02*
X-11248000Y41008000D01*
%TD*%
%TA.AperFunction,Conductor*%
%TO.N,GND*%
G36*
X32583701Y32959793D02*
G01*
X32652942Y32904574D01*
X32675497Y32869199D01*
X32677389Y32865399D01*
X32807219Y32693477D01*
X32807222Y32693473D01*
X32942519Y32570134D01*
X32966436Y32548331D01*
X32966438Y32548330D01*
X32966439Y32548329D01*
X33154398Y32431949D01*
X33217434Y32369740D01*
X33247235Y32286341D01*
X33237900Y32198271D01*
X33191278Y32122973D01*
X33133739Y32082401D01*
X33036595Y32037103D01*
X32971811Y31991743D01*
X32971811Y31991742D01*
X33642553Y31321000D01*
X33619840Y31321000D01*
X33522939Y31295036D01*
X33436060Y31244876D01*
X33365124Y31173940D01*
X33314964Y31087061D01*
X33289000Y30990160D01*
X33289000Y30967447D01*
X32618258Y31638189D01*
X32618257Y31638189D01*
X32572898Y31573406D01*
X32479580Y31373284D01*
X32479578Y31373280D01*
X32422426Y31159988D01*
X32422425Y31159984D01*
X32403179Y30940000D01*
X32422425Y30720017D01*
X32422426Y30720013D01*
X32479577Y30506724D01*
X32572900Y30306591D01*
X32618258Y30241813D01*
X32618259Y30241812D01*
X33289000Y30912553D01*
X33289000Y30889840D01*
X33314964Y30792939D01*
X33365124Y30706060D01*
X33436060Y30635124D01*
X33522939Y30584964D01*
X33619840Y30559000D01*
X33642553Y30559000D01*
X32971811Y29888260D01*
X32971811Y29888259D01*
X33036585Y29842904D01*
X33133738Y29797601D01*
X33203663Y29743250D01*
X33243081Y29663943D01*
X33244186Y29575386D01*
X33206758Y29495120D01*
X33154399Y29448052D01*
X32966435Y29331669D01*
X32966434Y29331668D01*
X32807222Y29186528D01*
X32677388Y29014602D01*
X32581356Y28821742D01*
X32522399Y28614524D01*
X32522398Y28614521D01*
X32502520Y28400001D01*
X32502520Y28400000D01*
X32522398Y28185480D01*
X32522398Y28185478D01*
X32522399Y28185476D01*
X32536680Y28135282D01*
X32581356Y27978259D01*
X32677388Y27785399D01*
X32807222Y27613473D01*
X32866991Y27558987D01*
X32966436Y27468331D01*
X32966438Y27468330D01*
X32966439Y27468329D01*
X33149602Y27354919D01*
X33149601Y27354919D01*
X33149605Y27354918D01*
X33149609Y27354915D01*
X33251191Y27315562D01*
X33324584Y27265994D01*
X33369202Y27189491D01*
X33376209Y27101205D01*
X33344215Y27018623D01*
X33279559Y26958100D01*
X33251191Y26944439D01*
X33149609Y26905085D01*
X33149607Y26905085D01*
X33149602Y26905082D01*
X32966439Y26791672D01*
X32966434Y26791668D01*
X32807222Y26646528D01*
X32677388Y26474602D01*
X32581356Y26281742D01*
X32522399Y26074524D01*
X32522398Y26074521D01*
X32502520Y25860001D01*
X32502520Y25860000D01*
X32522398Y25645480D01*
X32522399Y25645477D01*
X32581356Y25438259D01*
X32677388Y25245399D01*
X32807222Y25073473D01*
X32866991Y25018987D01*
X32966436Y24928331D01*
X32966438Y24928330D01*
X32966439Y24928329D01*
X33154398Y24811949D01*
X33217434Y24749740D01*
X33247235Y24666341D01*
X33237900Y24578271D01*
X33191278Y24502973D01*
X33133739Y24462401D01*
X33036595Y24417103D01*
X32971811Y24371743D01*
X32971811Y24371742D01*
X33642553Y23701000D01*
X33619840Y23701000D01*
X33522939Y23675036D01*
X33436060Y23624876D01*
X33365124Y23553940D01*
X33314964Y23467061D01*
X33289000Y23370160D01*
X33289000Y23347447D01*
X32618258Y24018189D01*
X32618257Y24018189D01*
X32572898Y23953406D01*
X32479580Y23753284D01*
X32479578Y23753280D01*
X32422426Y23539988D01*
X32422425Y23539984D01*
X32403179Y23319999D01*
X32409732Y23245096D01*
X32397625Y23157364D01*
X32348651Y23083574D01*
X32272510Y23038340D01*
X32184284Y23030621D01*
X32101446Y23061947D01*
X32070775Y23087039D01*
X31017783Y24140031D01*
X30970664Y24215019D01*
X30960110Y24296356D01*
X30960500Y24301306D01*
X30960500Y25132694D01*
X30957598Y25169569D01*
X30911744Y25327398D01*
X30872578Y25393625D01*
X30828082Y25468864D01*
X30711863Y25585083D01*
X30570399Y25668744D01*
X30412569Y25714598D01*
X30375694Y25717500D01*
X29344306Y25717500D01*
X29313576Y25715082D01*
X29307430Y25714598D01*
X29149600Y25668744D01*
X29008136Y25585083D01*
X28891917Y25468864D01*
X28808256Y25327400D01*
X28771387Y25200496D01*
X28762402Y25169569D01*
X28759500Y25132694D01*
X28759500Y24301306D01*
X28760435Y24289423D01*
X28762402Y24264431D01*
X28793020Y24159044D01*
X28798185Y24070631D01*
X28764477Y23988733D01*
X28698573Y23929571D01*
X28613526Y23904863D01*
X28526181Y23919501D01*
X28453837Y23970588D01*
X28438910Y23989383D01*
X28418740Y24018189D01*
X28320047Y24159139D01*
X28159139Y24320047D01*
X27972734Y24450568D01*
X27766496Y24546739D01*
X27766497Y24546739D01*
X27766490Y24546742D01*
X27546704Y24605633D01*
X27546692Y24605635D01*
X27320000Y24625468D01*
X27093307Y24605635D01*
X27093295Y24605633D01*
X26873509Y24546742D01*
X26667266Y24450568D01*
X26480856Y24320044D01*
X26478006Y24317193D01*
X26475831Y24315828D01*
X26474205Y24314462D01*
X26474016Y24314687D01*
X26403015Y24270079D01*
X26315008Y24260168D01*
X26231416Y24289423D01*
X26168796Y24352050D01*
X26150846Y24388374D01*
X26123351Y24462092D01*
X26037189Y24577190D01*
X25922090Y24663353D01*
X25922087Y24663354D01*
X25787381Y24713597D01*
X25787372Y24713599D01*
X25727823Y24720000D01*
X25030000Y24720000D01*
X25030000Y23695278D01*
X24953694Y23739333D01*
X24839244Y23770000D01*
X24720756Y23770000D01*
X24606306Y23739333D01*
X24530000Y23695278D01*
X24530000Y24720000D01*
X23832177Y24720000D01*
X23772627Y24713599D01*
X23772618Y24713597D01*
X23637912Y24663354D01*
X23637909Y24663353D01*
X23522810Y24577190D01*
X23436647Y24462091D01*
X23436646Y24462088D01*
X23386403Y24327382D01*
X23386401Y24327373D01*
X23380000Y24267823D01*
X23380000Y23570000D01*
X24404722Y23570000D01*
X24360667Y23493694D01*
X24330000Y23379244D01*
X24330000Y23260756D01*
X24360667Y23146306D01*
X24404722Y23070000D01*
X23380000Y23070000D01*
X23380000Y22372178D01*
X23386401Y22312628D01*
X23386403Y22312619D01*
X23436646Y22177913D01*
X23436647Y22177910D01*
X23522810Y22062811D01*
X23637909Y21976648D01*
X23637912Y21976647D01*
X23772618Y21926404D01*
X23772627Y21926402D01*
X23832177Y21920000D01*
X24530000Y21920000D01*
X24530000Y22944723D01*
X24606306Y22900667D01*
X24720756Y22870000D01*
X24839244Y22870000D01*
X24953694Y22900667D01*
X25030000Y22944723D01*
X25030000Y21920000D01*
X25727823Y21920000D01*
X25787372Y21926402D01*
X25787381Y21926404D01*
X25922087Y21976647D01*
X25922090Y21976648D01*
X26037189Y22062811D01*
X26123351Y22177909D01*
X26150846Y22251627D01*
X26199483Y22325639D01*
X26275417Y22371219D01*
X26363607Y22379339D01*
X26446587Y22348391D01*
X26478014Y22322800D01*
X26480861Y22319953D01*
X26667266Y22189432D01*
X26873504Y22093261D01*
X26873505Y22093261D01*
X26873509Y22093259D01*
X27093295Y22034368D01*
X27093299Y22034368D01*
X27093308Y22034365D01*
X27320000Y22014532D01*
X27546692Y22034365D01*
X27546701Y22034368D01*
X27546704Y22034368D01*
X27766490Y22093259D01*
X27766491Y22093260D01*
X27766496Y22093261D01*
X27972734Y22189432D01*
X27972740Y22189437D01*
X27973439Y22189839D01*
X27973933Y22189992D01*
X27980608Y22193104D01*
X27981037Y22192183D01*
X28058068Y22215944D01*
X28072939Y22216500D01*
X28629980Y22216500D01*
X28716323Y22196793D01*
X28785564Y22141574D01*
X28800563Y22116598D01*
X28801883Y22117378D01*
X28891917Y21965137D01*
X29008136Y21848918D01*
X29043419Y21828052D01*
X29149602Y21765256D01*
X29307431Y21719402D01*
X29344306Y21716500D01*
X29344311Y21716500D01*
X30375689Y21716500D01*
X30375694Y21716500D01*
X30412569Y21719402D01*
X30570398Y21765256D01*
X30711865Y21848919D01*
X30828081Y21965135D01*
X30911744Y22106602D01*
X30957598Y22264431D01*
X30960500Y22301306D01*
X30960500Y22301313D01*
X30960501Y22301325D01*
X30960654Y22305215D01*
X30961396Y22305186D01*
X30980207Y22387601D01*
X31035426Y22456842D01*
X31115218Y22495269D01*
X31203782Y22495269D01*
X31283574Y22456842D01*
X31300214Y22441972D01*
X32489602Y21252584D01*
X32536721Y21177596D01*
X32546637Y21089589D01*
X32540292Y21057414D01*
X32523835Y20999569D01*
X32522400Y20994527D01*
X32522398Y20994520D01*
X32502520Y20780001D01*
X32502520Y20780000D01*
X32522398Y20565480D01*
X32522399Y20565477D01*
X32573337Y20386445D01*
X32578010Y20298005D01*
X32543848Y20216296D01*
X32477617Y20157500D01*
X32392434Y20133264D01*
X32352047Y20137501D01*
X32351823Y20135798D01*
X32338895Y20137500D01*
X32338892Y20137500D01*
X31090020Y20137500D01*
X31003677Y20157207D01*
X30934436Y20212426D01*
X30919436Y20237403D01*
X30918117Y20236622D01*
X30828082Y20388864D01*
X30711863Y20505083D01*
X30570399Y20588744D01*
X30412569Y20634598D01*
X30375694Y20637500D01*
X29344306Y20637500D01*
X29313576Y20635082D01*
X29307430Y20634598D01*
X29149600Y20588744D01*
X29008136Y20505083D01*
X28891917Y20388864D01*
X28808256Y20247400D01*
X28771387Y20120496D01*
X28762402Y20089569D01*
X28759990Y20058911D01*
X28759500Y20052689D01*
X28759500Y19221312D01*
X28762402Y19184431D01*
X28793020Y19079044D01*
X28798185Y18990631D01*
X28764477Y18908733D01*
X28698573Y18849571D01*
X28613526Y18824863D01*
X28526181Y18839501D01*
X28453837Y18890588D01*
X28438910Y18909383D01*
X28418740Y18938189D01*
X28320047Y19079139D01*
X28159139Y19240047D01*
X27972734Y19370568D01*
X27766496Y19466739D01*
X27766497Y19466739D01*
X27766490Y19466742D01*
X27546704Y19525633D01*
X27546692Y19525635D01*
X27320000Y19545468D01*
X27093307Y19525635D01*
X27093295Y19525633D01*
X26873509Y19466742D01*
X26667266Y19370568D01*
X26480856Y19240044D01*
X26478006Y19237193D01*
X26475831Y19235828D01*
X26474205Y19234462D01*
X26474016Y19234687D01*
X26403015Y19190079D01*
X26315008Y19180168D01*
X26231416Y19209423D01*
X26168796Y19272050D01*
X26150846Y19308374D01*
X26123351Y19382092D01*
X26037189Y19497190D01*
X25922090Y19583353D01*
X25922087Y19583354D01*
X25787381Y19633597D01*
X25787372Y19633599D01*
X25727823Y19640000D01*
X25030000Y19640000D01*
X25030000Y18615278D01*
X24953694Y18659333D01*
X24839244Y18690000D01*
X24720756Y18690000D01*
X24606306Y18659333D01*
X24530000Y18615278D01*
X24530000Y19640000D01*
X23832177Y19640000D01*
X23772627Y19633599D01*
X23772618Y19633597D01*
X23637912Y19583354D01*
X23637909Y19583353D01*
X23522810Y19497190D01*
X23436647Y19382091D01*
X23436646Y19382088D01*
X23386403Y19247382D01*
X23386401Y19247373D01*
X23380000Y19187823D01*
X23380000Y18490000D01*
X24404722Y18490000D01*
X24360667Y18413694D01*
X24330000Y18299244D01*
X24330000Y18180756D01*
X24360667Y18066306D01*
X24404722Y17990000D01*
X23380000Y17990000D01*
X23380000Y17292178D01*
X23386401Y17232628D01*
X23386403Y17232619D01*
X23436646Y17097913D01*
X23436647Y17097910D01*
X23522810Y16982811D01*
X23637909Y16896648D01*
X23637912Y16896647D01*
X23772618Y16846404D01*
X23772627Y16846402D01*
X23832177Y16840000D01*
X24530000Y16840000D01*
X24530000Y17864723D01*
X24606306Y17820667D01*
X24720756Y17790000D01*
X24839244Y17790000D01*
X24953694Y17820667D01*
X25030000Y17864723D01*
X25030000Y16840000D01*
X25727823Y16840000D01*
X25787372Y16846402D01*
X25787381Y16846404D01*
X25922087Y16896647D01*
X25922090Y16896648D01*
X26037189Y16982811D01*
X26123351Y17097909D01*
X26150846Y17171627D01*
X26199483Y17245639D01*
X26275417Y17291219D01*
X26363607Y17299339D01*
X26446587Y17268391D01*
X26478014Y17242800D01*
X26480861Y17239953D01*
X26667266Y17109432D01*
X26873504Y17013261D01*
X26873505Y17013261D01*
X26873509Y17013259D01*
X27093295Y16954368D01*
X27093299Y16954368D01*
X27093308Y16954365D01*
X27320000Y16934532D01*
X27546692Y16954365D01*
X27546701Y16954368D01*
X27546704Y16954368D01*
X27766490Y17013259D01*
X27766491Y17013260D01*
X27766496Y17013261D01*
X27972734Y17109432D01*
X27972740Y17109437D01*
X27973439Y17109839D01*
X27973933Y17109992D01*
X27980608Y17113104D01*
X27981037Y17112183D01*
X28058068Y17135944D01*
X28072939Y17136500D01*
X28629980Y17136500D01*
X28716323Y17116793D01*
X28785564Y17061574D01*
X28800563Y17036598D01*
X28801883Y17037378D01*
X28891917Y16885137D01*
X29008136Y16768918D01*
X29149600Y16685257D01*
X29149602Y16685256D01*
X29307431Y16639402D01*
X29344306Y16636500D01*
X29344311Y16636500D01*
X30375689Y16636500D01*
X30375694Y16636500D01*
X30412569Y16639402D01*
X30570398Y16685256D01*
X30711865Y16768919D01*
X30828081Y16885135D01*
X30911744Y17026602D01*
X30957598Y17184431D01*
X30960500Y17221306D01*
X30960500Y18052694D01*
X30957598Y18089569D01*
X30911744Y18247398D01*
X30886455Y18290160D01*
X30828082Y18388864D01*
X30720660Y18496286D01*
X30673541Y18571274D01*
X30663625Y18659281D01*
X30692876Y18742874D01*
X30720660Y18777714D01*
X30767809Y18824863D01*
X30828081Y18885135D01*
X30911744Y19026602D01*
X30911743Y19026602D01*
X30918117Y19037378D01*
X30921295Y19035499D01*
X30959771Y19087953D01*
X31037949Y19129567D01*
X31090020Y19136500D01*
X31983258Y19136500D01*
X32069601Y19116793D01*
X32123972Y19078214D01*
X32489602Y18712584D01*
X32536721Y18637596D01*
X32546637Y18549589D01*
X32540292Y18517414D01*
X32525818Y18466539D01*
X32522400Y18454527D01*
X32522398Y18454520D01*
X32502520Y18240001D01*
X32502520Y18240000D01*
X32522398Y18025480D01*
X32522399Y18025477D01*
X32581356Y17818259D01*
X32677388Y17625399D01*
X32807222Y17453473D01*
X32942519Y17330134D01*
X32966436Y17308331D01*
X32966438Y17308330D01*
X32966439Y17308329D01*
X33149602Y17194919D01*
X33149601Y17194919D01*
X33149605Y17194918D01*
X33149609Y17194915D01*
X33251191Y17155562D01*
X33324584Y17105994D01*
X33369202Y17029491D01*
X33376209Y16941205D01*
X33344215Y16858623D01*
X33279559Y16798100D01*
X33251191Y16784439D01*
X33149609Y16745085D01*
X33149607Y16745085D01*
X33149602Y16745082D01*
X32966439Y16631672D01*
X32966434Y16631668D01*
X32807222Y16486528D01*
X32807219Y16486524D01*
X32677389Y16314602D01*
X32675497Y16310801D01*
X32673610Y16308499D01*
X32672544Y16306776D01*
X32672315Y16306918D01*
X32619370Y16242293D01*
X32539078Y16204922D01*
X32497358Y16200500D01*
X30195893Y16200500D01*
X30064108Y16200500D01*
X29936814Y16166392D01*
X29822684Y16100499D01*
X28963223Y15241039D01*
X28888234Y15193920D01*
X28800228Y15184004D01*
X28757895Y15193535D01*
X28644981Y15232298D01*
X28416052Y15270500D01*
X28416049Y15270500D01*
X28183951Y15270500D01*
X28183947Y15270500D01*
X28007401Y15241039D01*
X27955019Y15232298D01*
X27886965Y15208935D01*
X27735492Y15156935D01*
X27531370Y15046469D01*
X27348217Y14903915D01*
X27348216Y14903914D01*
X27191023Y14733156D01*
X27064075Y14538848D01*
X27064073Y14538846D01*
X26970843Y14326303D01*
X26913864Y14101298D01*
X26894700Y13870004D01*
X26894700Y13869997D01*
X26913864Y13638703D01*
X26970843Y13413698D01*
X27064073Y13201155D01*
X27064075Y13201153D01*
X27064076Y13201151D01*
X27191021Y13006847D01*
X27235765Y12958242D01*
X27348216Y12836087D01*
X27348217Y12836086D01*
X27531370Y12693532D01*
X27695214Y12604864D01*
X27761770Y12546437D01*
X27796385Y12464919D01*
X27799500Y12429849D01*
X27799500Y8810151D01*
X27779793Y8723808D01*
X27724574Y8654567D01*
X27695214Y8635136D01*
X27531370Y8546469D01*
X27348217Y8403915D01*
X27348216Y8403914D01*
X27191023Y8233156D01*
X27064075Y8038848D01*
X27064073Y8038846D01*
X26970843Y7826303D01*
X26913864Y7601298D01*
X26894700Y7370004D01*
X26894700Y7369997D01*
X26913864Y7138703D01*
X26970843Y6913698D01*
X27064073Y6701155D01*
X27064075Y6701153D01*
X27064076Y6701151D01*
X27191021Y6506847D01*
X27278941Y6411340D01*
X27348216Y6336087D01*
X27348217Y6336086D01*
X27531371Y6193532D01*
X27531370Y6193532D01*
X27735492Y6083066D01*
X27735495Y6083065D01*
X27735497Y6083064D01*
X27955019Y6007702D01*
X28183951Y5969500D01*
X28183953Y5969500D01*
X28416047Y5969500D01*
X28416049Y5969500D01*
X28644981Y6007702D01*
X28864503Y6083064D01*
X29068626Y6193530D01*
X29251784Y6336087D01*
X29408979Y6506847D01*
X29535924Y6701151D01*
X29571437Y6782111D01*
X29629156Y6913698D01*
X29630119Y6917500D01*
X29686134Y7138695D01*
X29687710Y7157708D01*
X29705300Y7369997D01*
X29705300Y7370004D01*
X29686135Y7601298D01*
X29686134Y7601301D01*
X29686134Y7601305D01*
X29629157Y7826300D01*
X29611234Y7867161D01*
X29535926Y8038846D01*
X29535924Y8038848D01*
X29535924Y8038849D01*
X29408979Y8233153D01*
X29251784Y8403913D01*
X29251783Y8403914D01*
X29251782Y8403915D01*
X29068629Y8546469D01*
X28904786Y8635136D01*
X28838230Y8693563D01*
X28803615Y8775081D01*
X28800500Y8810151D01*
X28800500Y12429849D01*
X28820207Y12516192D01*
X28875426Y12585433D01*
X28904786Y12604864D01*
X28949620Y12629127D01*
X29068626Y12693530D01*
X29079698Y12702147D01*
X29178438Y12779000D01*
X29251784Y12836087D01*
X29408979Y13006847D01*
X29535924Y13201151D01*
X29629157Y13413700D01*
X29686134Y13638695D01*
X29687710Y13657708D01*
X29705300Y13869997D01*
X29705300Y13870004D01*
X29686135Y14101298D01*
X29686134Y14101301D01*
X29686134Y14101305D01*
X29629157Y14326300D01*
X29629150Y14326315D01*
X29627315Y14331663D01*
X29617914Y14419726D01*
X29647653Y14503147D01*
X29674810Y14536998D01*
X30279028Y15141214D01*
X30354017Y15188333D01*
X30419742Y15199500D01*
X32497358Y15199500D01*
X32583701Y15179793D01*
X32652942Y15124574D01*
X32675497Y15089199D01*
X32677389Y15085399D01*
X32807219Y14913477D01*
X32807222Y14913473D01*
X32866991Y14858987D01*
X32966436Y14768331D01*
X32966438Y14768330D01*
X32966439Y14768329D01*
X33154398Y14651949D01*
X33217434Y14589740D01*
X33247235Y14506341D01*
X33237900Y14418271D01*
X33191278Y14342973D01*
X33133739Y14302401D01*
X33036595Y14257103D01*
X32971811Y14211743D01*
X32971811Y14211742D01*
X33642553Y13541000D01*
X33619840Y13541000D01*
X33522939Y13515036D01*
X33436060Y13464876D01*
X33365124Y13393940D01*
X33314964Y13307061D01*
X33289000Y13210160D01*
X33289000Y13187447D01*
X32618258Y13858189D01*
X32618257Y13858189D01*
X32572898Y13793406D01*
X32479580Y13593284D01*
X32479578Y13593280D01*
X32422426Y13379988D01*
X32422425Y13379984D01*
X32403179Y13159999D01*
X32409464Y13088157D01*
X32397356Y13000425D01*
X32348382Y12926634D01*
X32272242Y12881401D01*
X32184016Y12873682D01*
X32101178Y12905009D01*
X32070507Y12930100D01*
X32042367Y12958240D01*
X31864023Y13087814D01*
X31864024Y13087814D01*
X31864022Y13087815D01*
X31667612Y13187892D01*
X31667607Y13187895D01*
X31599080Y13210160D01*
X31457951Y13256015D01*
X31457945Y13256016D01*
X31457946Y13256016D01*
X31240227Y13290501D01*
X31240222Y13290501D01*
X31019778Y13290501D01*
X31019772Y13290501D01*
X30802053Y13256016D01*
X30802050Y13256016D01*
X30802049Y13256015D01*
X30735883Y13234517D01*
X30592392Y13187895D01*
X30592387Y13187892D01*
X30395976Y13087814D01*
X30217632Y12958240D01*
X30061760Y12802368D01*
X29932186Y12624024D01*
X29832108Y12427613D01*
X29832105Y12427608D01*
X29796813Y12318987D01*
X29764359Y12219100D01*
X29763984Y12217947D01*
X29729499Y12000228D01*
X29729499Y11779773D01*
X29763984Y11562054D01*
X29763985Y11562049D01*
X29796813Y11461014D01*
X29832105Y11352393D01*
X29832108Y11352388D01*
X29931355Y11157606D01*
X29932186Y11155977D01*
X30061760Y10977633D01*
X30286593Y10752800D01*
X30333712Y10677812D01*
X30343628Y10589805D01*
X30314377Y10506212D01*
X30262849Y10451092D01*
X30217634Y10418242D01*
X30061760Y10262368D01*
X29932186Y10084024D01*
X29832108Y9887613D01*
X29832102Y9887600D01*
X29763987Y9677961D01*
X29763984Y9677950D01*
X29729500Y9460222D01*
X29729500Y9239779D01*
X29763984Y9022051D01*
X29763987Y9022040D01*
X29832102Y8812401D01*
X29832104Y8812396D01*
X29832105Y8812394D01*
X29932185Y8615978D01*
X30061758Y8437635D01*
X30217635Y8281758D01*
X30395978Y8152185D01*
X30592394Y8052105D01*
X30592399Y8052104D01*
X30592400Y8052103D01*
X30802039Y7983988D01*
X30802043Y7983987D01*
X30802049Y7983985D01*
X31019778Y7949500D01*
X31737466Y7949500D01*
X31823809Y7929793D01*
X31878180Y7891214D01*
X32757632Y7011761D01*
X32757635Y7011759D01*
X32757636Y7011758D01*
X32935978Y6882185D01*
X33132394Y6782105D01*
X33132399Y6782104D01*
X33132400Y6782103D01*
X33342039Y6713988D01*
X33342043Y6713987D01*
X33342049Y6713985D01*
X33559778Y6679500D01*
X33780222Y6679500D01*
X33997951Y6713985D01*
X34207605Y6782105D01*
X34404022Y6882185D01*
X34582364Y7011758D01*
X34738242Y7167636D01*
X34745375Y7177455D01*
X34812066Y7235725D01*
X34897437Y7259289D01*
X34984578Y7243479D01*
X35056229Y7191425D01*
X35083683Y7150835D01*
X35119951Y7079656D01*
X35209657Y6989950D01*
X35322692Y6932356D01*
X35322696Y6932354D01*
X35416481Y6917500D01*
X37003518Y6917501D01*
X37097304Y6932354D01*
X37190655Y6979920D01*
X37276534Y7001559D01*
X37363298Y6983794D01*
X37433761Y6930144D01*
X37473968Y6851233D01*
X37480000Y6802609D01*
X37480000Y2574428D01*
X37460293Y2488085D01*
X37421714Y2433714D01*
X37030286Y2042286D01*
X36955298Y1995167D01*
X36889572Y1984000D01*
X23338428Y1984000D01*
X23252085Y2003707D01*
X23197714Y2042286D01*
X22806286Y2433714D01*
X22759167Y2508702D01*
X22748000Y2574428D01*
X22748000Y4372352D01*
X33639500Y4372352D01*
X33639500Y4167648D01*
X33642655Y4147727D01*
X33671522Y3965471D01*
X33671523Y3965464D01*
X33734777Y3770788D01*
X33734785Y3770769D01*
X33827706Y3588401D01*
X33827712Y3588391D01*
X33900334Y3488435D01*
X33948034Y3422781D01*
X34092781Y3278034D01*
X34258390Y3157713D01*
X34258400Y3157707D01*
X34440768Y3064786D01*
X34440775Y3064784D01*
X34440781Y3064780D01*
X34635466Y3001523D01*
X34837648Y2969500D01*
X34837649Y2969500D01*
X35042351Y2969500D01*
X35042352Y2969500D01*
X35244534Y3001523D01*
X35439219Y3064780D01*
X35439231Y3064786D01*
X35621599Y3157707D01*
X35621603Y3157710D01*
X35621610Y3157713D01*
X35787219Y3278034D01*
X35931966Y3422781D01*
X36052287Y3588390D01*
X36097776Y3677666D01*
X36145214Y3770769D01*
X36145214Y3770771D01*
X36145220Y3770781D01*
X36208477Y3965466D01*
X36240500Y4167648D01*
X36240500Y4372352D01*
X36208477Y4574534D01*
X36145220Y4769219D01*
X36145216Y4769225D01*
X36145214Y4769232D01*
X36052293Y4951600D01*
X36052287Y4951610D01*
X35950560Y5091626D01*
X35931966Y5117219D01*
X35787219Y5261966D01*
X35621610Y5382287D01*
X35621611Y5382287D01*
X35621609Y5382288D01*
X35621599Y5382294D01*
X35439231Y5475215D01*
X35439212Y5475223D01*
X35244536Y5538477D01*
X35244529Y5538478D01*
X35129735Y5556660D01*
X35042352Y5570500D01*
X34837648Y5570500D01*
X34776635Y5560837D01*
X34635470Y5538478D01*
X34635463Y5538477D01*
X34440787Y5475223D01*
X34440768Y5475215D01*
X34258400Y5382294D01*
X34258390Y5382288D01*
X34092783Y5261968D01*
X34092779Y5261965D01*
X33948035Y5117221D01*
X33948032Y5117217D01*
X33827712Y4951610D01*
X33827706Y4951600D01*
X33734785Y4769232D01*
X33734777Y4769213D01*
X33671523Y4574537D01*
X33671523Y4574534D01*
X33639500Y4372352D01*
X22748000Y4372352D01*
X22748000Y5899783D01*
X22767707Y5986126D01*
X22822926Y6055367D01*
X22902718Y6093794D01*
X22991282Y6093794D01*
X23041714Y6074798D01*
X23195387Y5991634D01*
X23430511Y5910917D01*
X23675702Y5870001D01*
X23675708Y5870000D01*
X23924292Y5870000D01*
X23924297Y5870001D01*
X24169488Y5910917D01*
X24404612Y5991634D01*
X24623229Y6109944D01*
X24670056Y6146391D01*
X23970234Y6846213D01*
X24012292Y6857482D01*
X24137708Y6929890D01*
X24240110Y7032292D01*
X24312518Y7157708D01*
X24323787Y7199766D01*
X25023435Y6500118D01*
X25023435Y6500119D01*
X25123728Y6653626D01*
X25123734Y6653636D01*
X25223586Y6881280D01*
X25284614Y7122270D01*
X25305141Y7369996D01*
X25305141Y7370005D01*
X25284614Y7617731D01*
X25223586Y7858721D01*
X25123734Y8086365D01*
X25123728Y8086375D01*
X25023435Y8239883D01*
X24323787Y7540236D01*
X24312518Y7582292D01*
X24240110Y7707708D01*
X24137708Y7810110D01*
X24012292Y7882518D01*
X23970234Y7893788D01*
X24670057Y8593611D01*
X24623233Y8630054D01*
X24623232Y8630055D01*
X24404612Y8748367D01*
X24169488Y8829084D01*
X23924297Y8870000D01*
X23675702Y8870000D01*
X23430511Y8829084D01*
X23195389Y8748367D01*
X23041713Y8665202D01*
X22956397Y8641440D01*
X22869220Y8657048D01*
X22797448Y8708935D01*
X22755297Y8786825D01*
X22748000Y8840218D01*
X22748000Y12399783D01*
X22767707Y12486126D01*
X22822926Y12555367D01*
X22902718Y12593794D01*
X22991282Y12593794D01*
X23041714Y12574798D01*
X23195387Y12491634D01*
X23430511Y12410917D01*
X23675702Y12370001D01*
X23675708Y12370000D01*
X23924292Y12370000D01*
X23924297Y12370001D01*
X24169488Y12410917D01*
X24404612Y12491634D01*
X24623229Y12609944D01*
X24670056Y12646391D01*
X23970234Y13346213D01*
X24012292Y13357482D01*
X24137708Y13429890D01*
X24240110Y13532292D01*
X24312518Y13657708D01*
X24323787Y13699766D01*
X25023435Y13000118D01*
X25023435Y13000119D01*
X25123728Y13153626D01*
X25123734Y13153636D01*
X25223586Y13381280D01*
X25284614Y13622270D01*
X25305141Y13869996D01*
X25305141Y13870005D01*
X25284614Y14117731D01*
X25223586Y14358721D01*
X25123734Y14586365D01*
X25123728Y14586375D01*
X25023435Y14739883D01*
X24323787Y14040236D01*
X24312518Y14082292D01*
X24240110Y14207708D01*
X24137708Y14310110D01*
X24012292Y14382518D01*
X23970234Y14393788D01*
X24670057Y15093611D01*
X24623233Y15130054D01*
X24623232Y15130055D01*
X24404612Y15248367D01*
X24169488Y15329084D01*
X23924297Y15370000D01*
X23675702Y15370000D01*
X23430511Y15329084D01*
X23195389Y15248367D01*
X23041713Y15165202D01*
X22956397Y15141440D01*
X22869220Y15157048D01*
X22797448Y15208935D01*
X22755297Y15286825D01*
X22748000Y15340218D01*
X22748000Y27383999D01*
X22747999Y27384001D01*
X22240000Y27892000D01*
X-9944158Y27892000D01*
X-10030501Y27911707D01*
X-10099742Y27966926D01*
X-10138169Y28046718D01*
X-10138169Y28135282D01*
X-10099742Y28215074D01*
X-10084872Y28231714D01*
X-8722926Y29593660D01*
X-7331500Y30985086D01*
X-7265608Y31099214D01*
X-7254117Y31142104D01*
X-7212736Y31220403D01*
X-7209845Y31223334D01*
X-7209912Y31223393D01*
X-7201931Y31232402D01*
X-7112655Y31361742D01*
X-7104953Y31372900D01*
X-7095523Y31397765D01*
X-7044416Y31532523D01*
X-7044416Y31532524D01*
X-7044415Y31532526D01*
X-7023837Y31702000D01*
X-7028513Y31740514D01*
X-7019357Y31828603D01*
X-6972887Y31903995D01*
X-6898307Y31951759D01*
X-6830964Y31963500D01*
X-3171110Y31963500D01*
X-3171108Y31963500D01*
X-3043814Y31997608D01*
X-2929686Y32063500D01*
X-2459972Y32533214D01*
X-2384984Y32580333D01*
X-2319258Y32591500D01*
X-1853394Y32591500D01*
X-1809167Y32596812D01*
X-1764936Y32602123D01*
X-1624158Y32657639D01*
X-1503578Y32749078D01*
X-1503579Y32749078D01*
X-1500959Y32751064D01*
X-1420253Y32787533D01*
X-1380716Y32791500D01*
X3189890Y32791500D01*
X3189892Y32791500D01*
X3317186Y32825608D01*
X3431314Y32891500D01*
X3461028Y32921214D01*
X3536016Y32968333D01*
X3601742Y32979500D01*
X32497358Y32979500D01*
X32583701Y32959793D01*
G37*
%TD.AperFunction*%
%TA.AperFunction,Conductor*%
G36*
X-11381126Y26716656D02*
G01*
X-11318502Y26654032D01*
X-11289251Y26570439D01*
X-11288000Y26548158D01*
X-11288000Y11981500D01*
X-11307707Y11895157D01*
X-11362926Y11825916D01*
X-11442718Y11787489D01*
X-11487000Y11782500D01*
X-12422258Y11782500D01*
X-12508601Y11802207D01*
X-12562972Y11840786D01*
X-12563231Y11841045D01*
X-12610350Y11916033D01*
X-12620066Y11957772D01*
X-12622947Y11981500D01*
X-12632415Y12059474D01*
X-12632416Y12059477D01*
X-12632416Y12059478D01*
X-12692951Y12219096D01*
X-12692952Y12219098D01*
X-12692953Y12219100D01*
X-12789932Y12359599D01*
X-12805593Y12373473D01*
X-12917717Y12472806D01*
X-12917719Y12472808D01*
X-13068885Y12552146D01*
X-13234637Y12593000D01*
X-13234640Y12593000D01*
X-13405360Y12593000D01*
X-13405364Y12593000D01*
X-13571116Y12552146D01*
X-13571117Y12552146D01*
X-13722282Y12472808D01*
X-13722284Y12472806D01*
X-13850067Y12359601D01*
X-13947047Y12219100D01*
X-13947050Y12219096D01*
X-14007585Y12059478D01*
X-14007585Y12059476D01*
X-14028163Y11890000D01*
X-14007585Y11720525D01*
X-14007585Y11720523D01*
X-13947050Y11560905D01*
X-13947048Y11560903D01*
X-13947047Y11560900D01*
X-13850068Y11420401D01*
X-13722282Y11307193D01*
X-13693294Y11291979D01*
X-13625999Y11234404D01*
X-13590350Y11153333D01*
X-13588024Y11093494D01*
X-13593500Y11044890D01*
X-13593500Y11044888D01*
X-13593500Y10195112D01*
X-13578727Y10064000D01*
X-13578727Y10063998D01*
X-13578726Y10063997D01*
X-13520563Y9897776D01*
X-13520563Y9897775D01*
X-13499358Y9864028D01*
X-13426867Y9748660D01*
X-13426864Y9748657D01*
X-13426864Y9748656D01*
X-13302345Y9624137D01*
X-13302343Y9624136D01*
X-13302340Y9624133D01*
X-13153226Y9530438D01*
X-13120284Y9518911D01*
X-13094940Y9510043D01*
X-13019951Y9462926D01*
X-12972832Y9387937D01*
X-12968826Y9352379D01*
X-11837161Y8220714D01*
X-11790042Y8145726D01*
X-11780126Y8057719D01*
X-11809377Y7974126D01*
X-11837162Y7939285D01*
X-11909287Y7867161D01*
X-11984276Y7820043D01*
X-12072282Y7810127D01*
X-12155876Y7839379D01*
X-12190714Y7867162D01*
X-13423418Y9099866D01*
X-13423420Y9099866D01*
X-13438633Y9087635D01*
X-13438636Y9087632D01*
X-13558692Y8938277D01*
X-13558698Y8938268D01*
X-13643834Y8766607D01*
X-13643834Y8766606D01*
X-13690081Y8580641D01*
X-13690082Y8580635D01*
X-13693000Y8537607D01*
X-13693000Y7736242D01*
X-13712707Y7649899D01*
X-13767926Y7580658D01*
X-13847718Y7542231D01*
X-13936282Y7542231D01*
X-14016074Y7580658D01*
X-14032714Y7595528D01*
X-16301214Y9864028D01*
X-16348333Y9939016D01*
X-16359500Y10004742D01*
X-16359500Y15739981D01*
X-16339793Y15826324D01*
X-16284574Y15895565D01*
X-16259596Y15910561D01*
X-16260378Y15911883D01*
X-16108141Y16001915D01*
X-16108140Y16001917D01*
X-16108135Y16001919D01*
X-16071069Y16038986D01*
X-15996086Y16086101D01*
X-15908079Y16096018D01*
X-15824485Y16066768D01*
X-15789644Y16038983D01*
X-15678347Y15927686D01*
X-15678343Y15927683D01*
X-15529122Y15835643D01*
X-15362701Y15780496D01*
X-15259971Y15770001D01*
X-14610000Y15770001D01*
X-14460023Y15770001D01*
X-14460017Y15770002D01*
X-14357305Y15780494D01*
X-14357304Y15780494D01*
X-14190880Y15835642D01*
X-14041658Y15927683D01*
X-14041654Y15927686D01*
X-13917686Y16051654D01*
X-13917683Y16051658D01*
X-13825643Y16200879D01*
X-13770496Y16367300D01*
X-13760000Y16470030D01*
X-13760000Y16720000D01*
X-14610000Y16720000D01*
X-14610000Y15770001D01*
X-15259971Y15770001D01*
X-15110000Y15770002D01*
X-15110000Y17021000D01*
X-15090293Y17107343D01*
X-15035074Y17176584D01*
X-14955282Y17215011D01*
X-14911000Y17220000D01*
X-13760001Y17220000D01*
X-13760001Y17469978D01*
X-13760002Y17469984D01*
X-13770494Y17572696D01*
X-13770494Y17572697D01*
X-13825642Y17739121D01*
X-13917683Y17888343D01*
X-13917686Y17888347D01*
X-14041654Y18012315D01*
X-14041658Y18012318D01*
X-14190880Y18104359D01*
X-14190887Y18104362D01*
X-14196902Y18106355D01*
X-14272661Y18152224D01*
X-14321016Y18226421D01*
X-14332390Y18314251D01*
X-14304529Y18398318D01*
X-14242952Y18461971D01*
X-14235627Y18466522D01*
X-14108135Y18541919D01*
X-13991919Y18658135D01*
X-13908256Y18799602D01*
X-13888960Y18866020D01*
X-13845947Y18943436D01*
X-13773603Y18994523D01*
X-13697862Y19009500D01*
X-13606510Y19009500D01*
X-13606508Y19009500D01*
X-13479214Y19043608D01*
X-13365086Y19109500D01*
X-12111471Y20363118D01*
X-12111466Y20363121D01*
X-12095088Y20379500D01*
X-12095086Y20379500D01*
X-12001900Y20472686D01*
X-11936008Y20586814D01*
X-11922427Y20637500D01*
X-11901900Y20714107D01*
X-11901900Y20845892D01*
X-11901900Y20845893D01*
X-11901900Y26332258D01*
X-11882193Y26418601D01*
X-11843614Y26472972D01*
X-11627714Y26688872D01*
X-11552726Y26735991D01*
X-11464719Y26745907D01*
X-11381126Y26716656D01*
G37*
%TD.AperFunction*%
%TA.AperFunction,Conductor*%
G36*
X34721740Y12461812D02*
G01*
X34767097Y12526589D01*
X34767098Y12526590D01*
X34814912Y12629127D01*
X34869263Y12699052D01*
X34948570Y12738470D01*
X35037126Y12739575D01*
X35117392Y12702147D01*
X35173406Y12633729D01*
X35217388Y12545399D01*
X35347222Y12373473D01*
X35406991Y12318987D01*
X35506436Y12228331D01*
X35506438Y12228330D01*
X35506439Y12228329D01*
X35689602Y12114919D01*
X35689601Y12114919D01*
X35689605Y12114918D01*
X35689609Y12114915D01*
X35791191Y12075562D01*
X35864584Y12025994D01*
X35909202Y11949491D01*
X35916209Y11861205D01*
X35884215Y11778623D01*
X35819559Y11718100D01*
X35791191Y11704439D01*
X35689609Y11665085D01*
X35689607Y11665085D01*
X35689602Y11665082D01*
X35506439Y11551672D01*
X35506434Y11551668D01*
X35347222Y11406528D01*
X35236686Y11260155D01*
X35168926Y11203128D01*
X35083133Y11181149D01*
X34996300Y11198571D01*
X34925625Y11251943D01*
X34900574Y11289730D01*
X34867815Y11354022D01*
X34738242Y11532365D01*
X34582365Y11688242D01*
X34582363Y11688243D01*
X34582359Y11688247D01*
X34408571Y11814511D01*
X34350302Y11881205D01*
X34326740Y11966577D01*
X34342554Y12053717D01*
X34366272Y12086363D01*
X34368188Y12108259D01*
X33697447Y12779000D01*
X33720160Y12779000D01*
X33817061Y12804964D01*
X33903940Y12855124D01*
X33974876Y12926060D01*
X34025036Y13012939D01*
X34051000Y13109840D01*
X34051000Y13132553D01*
X34721740Y12461812D01*
G37*
%TD.AperFunction*%
%TA.AperFunction,Conductor*%
G36*
X34986838Y15389430D02*
G01*
X35066117Y15349954D01*
X35118138Y15284723D01*
X35121356Y15278259D01*
X35121357Y15278258D01*
X35184324Y15151803D01*
X35217389Y15085399D01*
X35347222Y14913473D01*
X35406991Y14858987D01*
X35506436Y14768331D01*
X35506438Y14768330D01*
X35506439Y14768329D01*
X35689602Y14654919D01*
X35689601Y14654919D01*
X35689605Y14654918D01*
X35689609Y14654915D01*
X35791191Y14615562D01*
X35864584Y14565994D01*
X35909202Y14489491D01*
X35916209Y14401205D01*
X35884215Y14318623D01*
X35819559Y14258100D01*
X35791191Y14244439D01*
X35689609Y14205085D01*
X35689607Y14205085D01*
X35689602Y14205082D01*
X35506439Y14091672D01*
X35506434Y14091668D01*
X35347222Y13946528D01*
X35217385Y13774598D01*
X35217385Y13774597D01*
X35173405Y13686272D01*
X35117278Y13617765D01*
X35036984Y13580396D01*
X34948429Y13581565D01*
X34869150Y13621041D01*
X34814912Y13690874D01*
X34767100Y13793407D01*
X34767098Y13793411D01*
X34721741Y13858189D01*
X34721740Y13858190D01*
X34051000Y13187449D01*
X34051000Y13210160D01*
X34025036Y13307061D01*
X33974876Y13393940D01*
X33903940Y13464876D01*
X33817061Y13515036D01*
X33720160Y13541000D01*
X33697448Y13541000D01*
X34368188Y14211741D01*
X34368187Y14211742D01*
X34303409Y14257100D01*
X34206261Y14302400D01*
X34136336Y14356750D01*
X34096918Y14436058D01*
X34095813Y14524614D01*
X34133241Y14604880D01*
X34185601Y14651949D01*
X34231826Y14680571D01*
X34373564Y14768331D01*
X34532778Y14913474D01*
X34662612Y15085401D01*
X34758643Y15278258D01*
X34758643Y15278259D01*
X34761862Y15284723D01*
X34817990Y15353229D01*
X34898283Y15390599D01*
X34986838Y15389430D01*
G37*
%TD.AperFunction*%
%TA.AperFunction,Conductor*%
G36*
X35829000Y18189840D02*
G01*
X35854964Y18092939D01*
X35905124Y18006060D01*
X35976060Y17935124D01*
X36062939Y17884964D01*
X36159840Y17859000D01*
X36182553Y17859000D01*
X35511811Y17188260D01*
X35511811Y17188259D01*
X35576585Y17142904D01*
X35673738Y17097601D01*
X35743663Y17043250D01*
X35783081Y16963943D01*
X35784186Y16875386D01*
X35746758Y16795120D01*
X35694399Y16748052D01*
X35506435Y16631669D01*
X35506434Y16631668D01*
X35347222Y16486528D01*
X35217388Y16314601D01*
X35118138Y16115278D01*
X35062010Y16046771D01*
X34981717Y16009402D01*
X34893161Y16010571D01*
X34813883Y16050047D01*
X34761862Y16115278D01*
X34662611Y16314601D01*
X34532777Y16486528D01*
X34373565Y16631668D01*
X34373560Y16631672D01*
X34190397Y16745082D01*
X34190398Y16745082D01*
X34190392Y16745085D01*
X34190391Y16745085D01*
X34088806Y16784439D01*
X34015415Y16834006D01*
X33970797Y16910508D01*
X33963790Y16998794D01*
X33995783Y17081377D01*
X34060439Y17141900D01*
X34088803Y17155560D01*
X34190391Y17194915D01*
X34190396Y17194919D01*
X34190398Y17194919D01*
X34272313Y17245639D01*
X34373564Y17308331D01*
X34532778Y17453474D01*
X34662612Y17625401D01*
X34706593Y17713727D01*
X34762719Y17782234D01*
X34843012Y17819605D01*
X34931568Y17818437D01*
X35010847Y17778961D01*
X35065087Y17709127D01*
X35112899Y17606592D01*
X35112900Y17606591D01*
X35158258Y17541813D01*
X35158259Y17541812D01*
X35829000Y18212553D01*
X35829000Y18189840D01*
G37*
%TD.AperFunction*%
%TA.AperFunction,Conductor*%
G36*
X37261740Y17541813D02*
G01*
X37263656Y17541980D01*
X37351388Y17529873D01*
X37425179Y17480899D01*
X37470413Y17404759D01*
X37480000Y17343737D01*
X37480000Y16541014D01*
X37460293Y16454671D01*
X37405074Y16385430D01*
X37325282Y16347003D01*
X37236718Y16347003D01*
X37156926Y16385430D01*
X37122195Y16421089D01*
X37072777Y16486528D01*
X36913565Y16631668D01*
X36913564Y16631669D01*
X36827018Y16685256D01*
X36725600Y16748052D01*
X36662565Y16810262D01*
X36632764Y16893660D01*
X36642099Y16981730D01*
X36688722Y17057028D01*
X36746262Y17097601D01*
X36843406Y17142899D01*
X36843411Y17142903D01*
X36908188Y17188260D01*
X36237448Y17859000D01*
X36260160Y17859000D01*
X36357061Y17884964D01*
X36443940Y17935124D01*
X36514876Y18006060D01*
X36565036Y18092939D01*
X36591000Y18189840D01*
X36591000Y18212553D01*
X37261740Y17541813D01*
G37*
%TD.AperFunction*%
%TA.AperFunction,Conductor*%
G36*
X34986838Y20469430D02*
G01*
X35066117Y20429954D01*
X35118138Y20364723D01*
X35217389Y20165399D01*
X35347222Y19993473D01*
X35406991Y19938987D01*
X35506436Y19848331D01*
X35506438Y19848330D01*
X35506439Y19848329D01*
X35694398Y19731949D01*
X35757434Y19669740D01*
X35787235Y19586341D01*
X35777900Y19498271D01*
X35731278Y19422973D01*
X35673739Y19382401D01*
X35576595Y19337103D01*
X35511811Y19291743D01*
X35511811Y19291742D01*
X36182553Y18621000D01*
X36159840Y18621000D01*
X36062939Y18595036D01*
X35976060Y18544876D01*
X35905124Y18473940D01*
X35854964Y18387061D01*
X35829000Y18290160D01*
X35829000Y18267447D01*
X35158258Y18938189D01*
X35158257Y18938189D01*
X35112899Y18873407D01*
X35065086Y18770872D01*
X35010735Y18700948D01*
X34931427Y18661530D01*
X34842871Y18660427D01*
X34762605Y18697855D01*
X34706593Y18766273D01*
X34662612Y18854600D01*
X34532777Y19026528D01*
X34373565Y19171668D01*
X34373560Y19171672D01*
X34190397Y19285082D01*
X34190398Y19285082D01*
X34190392Y19285085D01*
X34190391Y19285085D01*
X34088806Y19324439D01*
X34015415Y19374006D01*
X33970797Y19450508D01*
X33963790Y19538794D01*
X33995783Y19621377D01*
X34060439Y19681900D01*
X34088803Y19695560D01*
X34190391Y19734915D01*
X34190396Y19734919D01*
X34190398Y19734919D01*
X34265888Y19781661D01*
X34373564Y19848331D01*
X34532778Y19993474D01*
X34662612Y20165401D01*
X34758643Y20358258D01*
X34758643Y20358259D01*
X34761862Y20364723D01*
X34817990Y20433229D01*
X34898283Y20470599D01*
X34986838Y20469430D01*
G37*
%TD.AperFunction*%
%TA.AperFunction,Conductor*%
G36*
X37362580Y20120496D02*
G01*
X37433255Y20067125D01*
X37473774Y19988374D01*
X37480000Y19938987D01*
X37480000Y19136265D01*
X37460293Y19049922D01*
X37405074Y18980681D01*
X37325282Y18942254D01*
X37263656Y18938022D01*
X37261740Y18938190D01*
X36591000Y18267449D01*
X36591000Y18290160D01*
X36565036Y18387061D01*
X36514876Y18473940D01*
X36443940Y18544876D01*
X36357061Y18595036D01*
X36260160Y18621000D01*
X36237448Y18621000D01*
X36908188Y19291741D01*
X36908187Y19291742D01*
X36843409Y19337100D01*
X36746261Y19382400D01*
X36676336Y19436750D01*
X36636918Y19516058D01*
X36635813Y19604614D01*
X36673241Y19684880D01*
X36725601Y19731949D01*
X36771826Y19760571D01*
X36913564Y19848331D01*
X37072778Y19993474D01*
X37083283Y20007386D01*
X37122195Y20058911D01*
X37189955Y20115938D01*
X37275747Y20137918D01*
X37362580Y20120496D01*
G37*
%TD.AperFunction*%
%TA.AperFunction,Conductor*%
G36*
X34721740Y22621812D02*
G01*
X34767097Y22686589D01*
X34767098Y22686590D01*
X34814912Y22789127D01*
X34869263Y22859052D01*
X34948570Y22898470D01*
X35037126Y22899575D01*
X35117392Y22862147D01*
X35173406Y22793729D01*
X35217388Y22705399D01*
X35347222Y22533473D01*
X35482519Y22410134D01*
X35506436Y22388331D01*
X35506438Y22388330D01*
X35506439Y22388329D01*
X35689602Y22274919D01*
X35689601Y22274919D01*
X35689605Y22274918D01*
X35689609Y22274915D01*
X35791191Y22235562D01*
X35864584Y22185994D01*
X35909202Y22109491D01*
X35916209Y22021205D01*
X35884215Y21938623D01*
X35819559Y21878100D01*
X35791191Y21864439D01*
X35689609Y21825085D01*
X35689607Y21825085D01*
X35689602Y21825082D01*
X35506439Y21711672D01*
X35506434Y21711668D01*
X35347222Y21566528D01*
X35217388Y21394601D01*
X35118138Y21195278D01*
X35062010Y21126771D01*
X34981717Y21089402D01*
X34893161Y21090571D01*
X34813883Y21130047D01*
X34761862Y21195278D01*
X34662611Y21394601D01*
X34532777Y21566528D01*
X34373565Y21711668D01*
X34373564Y21711669D01*
X34287018Y21765256D01*
X34185600Y21828052D01*
X34122565Y21890262D01*
X34092764Y21973660D01*
X34102099Y22061730D01*
X34148722Y22137028D01*
X34206262Y22177601D01*
X34303406Y22222899D01*
X34303411Y22222903D01*
X34368187Y22268260D01*
X33697447Y22939000D01*
X33720160Y22939000D01*
X33817061Y22964964D01*
X33903940Y23015124D01*
X33974876Y23086060D01*
X34025036Y23172939D01*
X34051000Y23269840D01*
X34051000Y23292553D01*
X34721740Y22621812D01*
G37*
%TD.AperFunction*%
%TA.AperFunction,Conductor*%
G36*
X-12014485Y29020768D02*
G01*
X-11979644Y28992983D01*
X-11868347Y28881686D01*
X-11868343Y28881683D01*
X-11719122Y28789643D01*
X-11552700Y28734496D01*
X-11465775Y28725615D01*
X-11381882Y28697235D01*
X-11318611Y28635265D01*
X-11288493Y28551980D01*
X-11297493Y28463875D01*
X-11343830Y28388401D01*
X-11345285Y28386931D01*
X-12709714Y27022500D01*
X-12802899Y26929316D01*
X-12868792Y26815186D01*
X-12902900Y26687892D01*
X-12902900Y26687890D01*
X-12902900Y21655239D01*
X-12922607Y21568896D01*
X-12977826Y21499655D01*
X-13057618Y21461228D01*
X-13146182Y21461228D01*
X-13149522Y21462021D01*
X-13234640Y21483000D01*
X-13246590Y21484451D01*
X-13246389Y21486111D01*
X-13319102Y21502707D01*
X-13373473Y21541286D01*
X-13801214Y21969028D01*
X-13848333Y22044017D01*
X-13859500Y22109742D01*
X-13859500Y22565689D01*
X-13859500Y22565694D01*
X-13862402Y22602569D01*
X-13908256Y22760398D01*
X-13908257Y22760400D01*
X-13991918Y22901864D01*
X-14108137Y23018083D01*
X-14249601Y23101744D01*
X-14343080Y23128902D01*
X-14420496Y23171916D01*
X-14471583Y23244259D01*
X-14486221Y23331605D01*
X-14461513Y23416651D01*
X-14402351Y23482555D01*
X-14343080Y23511098D01*
X-14249602Y23538256D01*
X-14108135Y23621919D01*
X-13991919Y23738135D01*
X-13908256Y23879602D01*
X-13862402Y24037431D01*
X-13859500Y24074306D01*
X-13859500Y25105694D01*
X-13862402Y25142569D01*
X-13908256Y25300398D01*
X-13908257Y25300400D01*
X-13991918Y25441864D01*
X-14108137Y25558083D01*
X-14260378Y25648117D01*
X-14258499Y25651296D01*
X-14310953Y25689771D01*
X-14352567Y25767949D01*
X-14359500Y25820020D01*
X-14359500Y27824258D01*
X-14339793Y27910601D01*
X-14301214Y27964972D01*
X-13500972Y28765214D01*
X-13425984Y28812333D01*
X-13360258Y28823500D01*
X-12634311Y28823500D01*
X-12634306Y28823500D01*
X-12597431Y28826402D01*
X-12439602Y28872256D01*
X-12298135Y28955919D01*
X-12261069Y28992986D01*
X-12186086Y29040101D01*
X-12098079Y29050018D01*
X-12014485Y29020768D01*
G37*
%TD.AperFunction*%
%TA.AperFunction,Conductor*%
G36*
X34986838Y25549430D02*
G01*
X35066117Y25509954D01*
X35118138Y25444723D01*
X35217389Y25245399D01*
X35347222Y25073473D01*
X35406991Y25018987D01*
X35506436Y24928331D01*
X35506438Y24928330D01*
X35506439Y24928329D01*
X35689602Y24814919D01*
X35689601Y24814919D01*
X35689605Y24814918D01*
X35689609Y24814915D01*
X35791191Y24775562D01*
X35864584Y24725994D01*
X35909202Y24649491D01*
X35916209Y24561205D01*
X35884215Y24478623D01*
X35819559Y24418100D01*
X35791191Y24404439D01*
X35689609Y24365085D01*
X35689607Y24365085D01*
X35689602Y24365082D01*
X35506439Y24251672D01*
X35506434Y24251668D01*
X35347222Y24106528D01*
X35217385Y23934598D01*
X35217385Y23934597D01*
X35173405Y23846272D01*
X35117278Y23777765D01*
X35036984Y23740396D01*
X34948429Y23741565D01*
X34869150Y23781041D01*
X34814912Y23850874D01*
X34767100Y23953407D01*
X34767098Y23953411D01*
X34721741Y24018189D01*
X34721740Y24018190D01*
X34051000Y23347449D01*
X34051000Y23370160D01*
X34025036Y23467061D01*
X33974876Y23553940D01*
X33903940Y23624876D01*
X33817061Y23675036D01*
X33720160Y23701000D01*
X33697448Y23701000D01*
X34368188Y24371741D01*
X34368187Y24371742D01*
X34303409Y24417100D01*
X34206261Y24462400D01*
X34136336Y24516750D01*
X34096918Y24596058D01*
X34095813Y24684614D01*
X34133241Y24764880D01*
X34185601Y24811949D01*
X34231826Y24840571D01*
X34373564Y24928331D01*
X34532778Y25073474D01*
X34662612Y25245401D01*
X34758643Y25438258D01*
X34758643Y25438259D01*
X34761862Y25444723D01*
X34817990Y25513229D01*
X34898283Y25550599D01*
X34986838Y25549430D01*
G37*
%TD.AperFunction*%
%TA.AperFunction,Conductor*%
G36*
X-13175139Y54796293D02*
G01*
X-13105898Y54741074D01*
X-13067471Y54661282D01*
X-13067471Y54572718D01*
X-13098471Y54502858D01*
X-13147098Y54433413D01*
X-13147100Y54433409D01*
X-13240420Y54233283D01*
X-13240422Y54233280D01*
X-13297574Y54019988D01*
X-13297575Y54019984D01*
X-13316821Y53800000D01*
X-13297575Y53580017D01*
X-13297574Y53580013D01*
X-13240423Y53366724D01*
X-13147100Y53166591D01*
X-13101742Y53101813D01*
X-13101742Y53101812D01*
X-12431000Y53772554D01*
X-12431000Y53749840D01*
X-12405036Y53652939D01*
X-12354876Y53566060D01*
X-12283940Y53495124D01*
X-12197061Y53444964D01*
X-12100160Y53419000D01*
X-12077447Y53419000D01*
X-12748189Y52748260D01*
X-12748189Y52748259D01*
X-12683414Y52702903D01*
X-12683411Y52702901D01*
X-12483279Y52609579D01*
X-12269988Y52552427D01*
X-12269984Y52552426D01*
X-12050000Y52533180D01*
X-11830017Y52552426D01*
X-11830013Y52552427D01*
X-11616724Y52609578D01*
X-11416591Y52702901D01*
X-11416589Y52702903D01*
X-11351812Y52748260D01*
X-12022552Y53419000D01*
X-11999840Y53419000D01*
X-11902939Y53444964D01*
X-11816060Y53495124D01*
X-11745124Y53566060D01*
X-11694964Y53652939D01*
X-11669000Y53749840D01*
X-11669000Y53772553D01*
X-10998260Y53101813D01*
X-10952903Y53166589D01*
X-10952901Y53166591D01*
X-10859578Y53366724D01*
X-10802427Y53580013D01*
X-10802426Y53580017D01*
X-10783180Y53800000D01*
X-10802426Y54019984D01*
X-10802427Y54019988D01*
X-10859579Y54233280D01*
X-10859581Y54233283D01*
X-10952901Y54433409D01*
X-10952903Y54433413D01*
X-11001529Y54502858D01*
X-11034910Y54584890D01*
X-11029393Y54673281D01*
X-10986071Y54750525D01*
X-10913524Y54801323D01*
X-10838518Y54816000D01*
X1978518Y54816000D01*
X2064861Y54796293D01*
X2134102Y54741074D01*
X2172529Y54661282D01*
X2172529Y54572718D01*
X2141529Y54502858D01*
X2092902Y54433413D01*
X2092900Y54433409D01*
X1999580Y54233283D01*
X1999578Y54233280D01*
X1942426Y54019988D01*
X1942425Y54019984D01*
X1923179Y53800000D01*
X1942425Y53580017D01*
X1942426Y53580013D01*
X1999577Y53366724D01*
X2092900Y53166591D01*
X2138258Y53101813D01*
X2138258Y53101812D01*
X2809000Y53772554D01*
X2809000Y53749840D01*
X2834964Y53652939D01*
X2885124Y53566060D01*
X2956060Y53495124D01*
X3042939Y53444964D01*
X3139840Y53419000D01*
X3162553Y53419000D01*
X2491811Y52748260D01*
X2491811Y52748259D01*
X2556586Y52702903D01*
X2556589Y52702901D01*
X2756721Y52609579D01*
X2970012Y52552427D01*
X2970016Y52552426D01*
X3190000Y52533180D01*
X3409983Y52552426D01*
X3409987Y52552427D01*
X3623276Y52609578D01*
X3823409Y52702901D01*
X3823411Y52702903D01*
X3888188Y52748260D01*
X3217448Y53419000D01*
X3240160Y53419000D01*
X3337061Y53444964D01*
X3423940Y53495124D01*
X3494876Y53566060D01*
X3545036Y53652939D01*
X3571000Y53749840D01*
X3571000Y53772553D01*
X4241740Y53101813D01*
X4287097Y53166589D01*
X4287099Y53166591D01*
X4380422Y53366724D01*
X4437573Y53580013D01*
X4437574Y53580017D01*
X4456820Y53800000D01*
X4437574Y54019984D01*
X4437573Y54019988D01*
X4380421Y54233280D01*
X4380419Y54233283D01*
X4287099Y54433409D01*
X4287097Y54433413D01*
X4238471Y54502858D01*
X4205090Y54584890D01*
X4210607Y54673281D01*
X4253929Y54750525D01*
X4326476Y54801323D01*
X4401482Y54816000D01*
X7012127Y54816000D01*
X7098470Y54796293D01*
X7167711Y54741074D01*
X7206138Y54661282D01*
X7206138Y54572718D01*
X7175139Y54502859D01*
X7139866Y54452485D01*
X7139865Y54452484D01*
X7043731Y54246322D01*
X6991127Y54050001D01*
X6991128Y54050000D01*
X7954314Y54050000D01*
X7949920Y54045606D01*
X7897259Y53954394D01*
X7870000Y53852661D01*
X7870000Y53747339D01*
X7897259Y53645606D01*
X7949920Y53554394D01*
X7954314Y53550000D01*
X6991127Y53550000D01*
X7043731Y53353679D01*
X7139865Y53147517D01*
X7139867Y53147514D01*
X7270339Y52961182D01*
X7431181Y52800340D01*
X7617513Y52669868D01*
X7617516Y52669866D01*
X7823679Y52573732D01*
X7823678Y52573732D01*
X8019999Y52521128D01*
X8020000Y52521128D01*
X8020000Y53484314D01*
X8024394Y53479920D01*
X8115606Y53427259D01*
X8217339Y53400000D01*
X8322661Y53400000D01*
X8424394Y53427259D01*
X8515606Y53479920D01*
X8520000Y53484314D01*
X8520000Y52521128D01*
X8716321Y52573732D01*
X8922483Y52669866D01*
X8922486Y52669868D01*
X9108818Y52800340D01*
X9269660Y52961182D01*
X9376989Y53114462D01*
X9442656Y53173886D01*
X9527604Y53198934D01*
X9615007Y53184643D01*
X9687553Y53133845D01*
X9703011Y53114462D01*
X9810339Y52961182D01*
X9971181Y52800340D01*
X10157513Y52669868D01*
X10157516Y52669866D01*
X10363679Y52573732D01*
X10363678Y52573732D01*
X10559999Y52521128D01*
X10560000Y52521128D01*
X10560000Y53484314D01*
X10564394Y53479920D01*
X10655606Y53427259D01*
X10757339Y53400000D01*
X10862661Y53400000D01*
X10964394Y53427259D01*
X11055606Y53479920D01*
X11060000Y53484314D01*
X11060000Y52521128D01*
X11256321Y52573732D01*
X11462483Y52669866D01*
X11462486Y52669868D01*
X11648818Y52800340D01*
X11809660Y52961182D01*
X11916989Y53114462D01*
X11982656Y53173886D01*
X12067604Y53198934D01*
X12155007Y53184643D01*
X12227553Y53133845D01*
X12243011Y53114462D01*
X12350339Y52961182D01*
X12511181Y52800340D01*
X12697513Y52669868D01*
X12697516Y52669866D01*
X12903679Y52573732D01*
X12903678Y52573732D01*
X13099999Y52521128D01*
X13100000Y52521128D01*
X13100000Y53484314D01*
X13104394Y53479920D01*
X13195606Y53427259D01*
X13297339Y53400000D01*
X13402661Y53400000D01*
X13504394Y53427259D01*
X13595606Y53479920D01*
X13600000Y53484314D01*
X13600000Y52521128D01*
X13796321Y52573732D01*
X14002483Y52669866D01*
X14002486Y52669868D01*
X14188818Y52800340D01*
X14349660Y52961182D01*
X14456989Y53114462D01*
X14522656Y53173886D01*
X14607604Y53198934D01*
X14695007Y53184643D01*
X14767553Y53133845D01*
X14783011Y53114462D01*
X14890339Y52961182D01*
X15051181Y52800340D01*
X15237513Y52669868D01*
X15237516Y52669866D01*
X15443679Y52573732D01*
X15443678Y52573732D01*
X15639999Y52521128D01*
X15640000Y52521128D01*
X15640000Y53484314D01*
X15644394Y53479920D01*
X15735606Y53427259D01*
X15837339Y53400000D01*
X15942661Y53400000D01*
X16044394Y53427259D01*
X16135606Y53479920D01*
X16140000Y53484314D01*
X16140000Y52521128D01*
X16336321Y52573732D01*
X16542483Y52669866D01*
X16542486Y52669868D01*
X16728818Y52800340D01*
X16889660Y52961182D01*
X16996989Y53114462D01*
X17062656Y53173886D01*
X17147604Y53198934D01*
X17235007Y53184643D01*
X17307553Y53133845D01*
X17323011Y53114462D01*
X17430339Y52961182D01*
X17591181Y52800340D01*
X17777513Y52669868D01*
X17777516Y52669866D01*
X17983679Y52573732D01*
X17983678Y52573732D01*
X18179999Y52521128D01*
X18180000Y52521128D01*
X18180000Y53484314D01*
X18184394Y53479920D01*
X18275606Y53427259D01*
X18377339Y53400000D01*
X18482661Y53400000D01*
X18584394Y53427259D01*
X18675606Y53479920D01*
X18680000Y53484314D01*
X18680000Y52521128D01*
X18876321Y52573732D01*
X19082483Y52669866D01*
X19082486Y52669868D01*
X19268818Y52800340D01*
X19429660Y52961182D01*
X19536989Y53114462D01*
X19602656Y53173886D01*
X19687604Y53198934D01*
X19775007Y53184643D01*
X19847553Y53133845D01*
X19863011Y53114462D01*
X19970339Y52961182D01*
X20131181Y52800340D01*
X20317513Y52669868D01*
X20317516Y52669866D01*
X20523679Y52573732D01*
X20523678Y52573732D01*
X20719999Y52521128D01*
X20720000Y52521128D01*
X20720000Y53484314D01*
X20724394Y53479920D01*
X20815606Y53427259D01*
X20917339Y53400000D01*
X21022661Y53400000D01*
X21124394Y53427259D01*
X21215606Y53479920D01*
X21220000Y53484314D01*
X21220000Y52521128D01*
X21416321Y52573732D01*
X21622483Y52669866D01*
X21622486Y52669868D01*
X21808818Y52800340D01*
X21969660Y52961182D01*
X22100132Y53147514D01*
X22100134Y53147517D01*
X22196268Y53353679D01*
X22248872Y53550000D01*
X21285686Y53550000D01*
X21290080Y53554394D01*
X21342741Y53645606D01*
X21370000Y53747339D01*
X21370000Y53852661D01*
X21342741Y53954394D01*
X21290080Y54045606D01*
X21285686Y54050000D01*
X22248872Y54050000D01*
X22248872Y54050001D01*
X22196268Y54246322D01*
X22100134Y54452484D01*
X22100133Y54452485D01*
X22064861Y54502859D01*
X22031481Y54584891D01*
X22036998Y54673282D01*
X22080320Y54750526D01*
X22152867Y54801323D01*
X22227873Y54816000D01*
X32580866Y54816000D01*
X32667209Y54796293D01*
X32736450Y54741074D01*
X32774877Y54661282D01*
X32774877Y54572718D01*
X32739671Y54497075D01*
X32677388Y54414601D01*
X32581356Y54221742D01*
X32522399Y54014524D01*
X32522398Y54014521D01*
X32502520Y53800001D01*
X32502520Y53800000D01*
X32522398Y53585481D01*
X32522401Y53585467D01*
X32540291Y53522586D01*
X32544964Y53434146D01*
X32510800Y53352437D01*
X32489601Y53327417D01*
X31500214Y52338029D01*
X31425226Y52290910D01*
X31337219Y52280994D01*
X31253626Y52310245D01*
X31191002Y52372869D01*
X31161751Y52456462D01*
X31160500Y52478743D01*
X31160500Y52632351D01*
X31160500Y52632352D01*
X31128477Y52834534D01*
X31065220Y53029219D01*
X31065216Y53029225D01*
X31065214Y53029232D01*
X30972293Y53211600D01*
X30972287Y53211610D01*
X30869971Y53352437D01*
X30851966Y53377219D01*
X30707219Y53521966D01*
X30541610Y53642287D01*
X30541611Y53642287D01*
X30541609Y53642288D01*
X30541599Y53642294D01*
X30359231Y53735215D01*
X30359212Y53735223D01*
X30164536Y53798477D01*
X30164529Y53798478D01*
X30049735Y53816660D01*
X29962352Y53830500D01*
X29757648Y53830500D01*
X29696635Y53820837D01*
X29555470Y53798478D01*
X29555463Y53798477D01*
X29360787Y53735223D01*
X29360768Y53735215D01*
X29178400Y53642294D01*
X29178390Y53642288D01*
X29012783Y53521968D01*
X29012779Y53521965D01*
X28868035Y53377221D01*
X28868032Y53377217D01*
X28747712Y53211610D01*
X28747706Y53211600D01*
X28654785Y53029232D01*
X28654777Y53029213D01*
X28591523Y52834537D01*
X28591523Y52834534D01*
X28559500Y52632352D01*
X28559500Y52427648D01*
X28578095Y52310245D01*
X28591522Y52225471D01*
X28591523Y52225464D01*
X28654777Y52030788D01*
X28654785Y52030769D01*
X28747706Y51848401D01*
X28747712Y51848391D01*
X28747713Y51848390D01*
X28868034Y51682781D01*
X29012781Y51538034D01*
X29178390Y51417713D01*
X29178400Y51417707D01*
X29360768Y51324786D01*
X29360775Y51324784D01*
X29360781Y51324780D01*
X29555466Y51261523D01*
X29757648Y51229500D01*
X29757649Y51229500D01*
X29911257Y51229500D01*
X29997600Y51209793D01*
X30066841Y51154574D01*
X30105268Y51074782D01*
X30105268Y50986218D01*
X30066841Y50906426D01*
X30051971Y50889786D01*
X25900972Y46738786D01*
X25825984Y46691667D01*
X25760258Y46680500D01*
X22185092Y46680500D01*
X22098749Y46700207D01*
X22029508Y46755426D01*
X22006956Y46790795D01*
X21995057Y46814691D01*
X21995054Y46814695D01*
X21860984Y46992232D01*
X21860981Y46992236D01*
X21696562Y47142124D01*
X21507401Y47259247D01*
X21299940Y47339618D01*
X21081243Y47380500D01*
X20858757Y47380500D01*
X20640060Y47339618D01*
X20432599Y47259247D01*
X20432598Y47259247D01*
X20432597Y47259246D01*
X20432595Y47259245D01*
X20243442Y47142127D01*
X20243440Y47142126D01*
X20243438Y47142124D01*
X20079019Y46992236D01*
X20079015Y46992232D01*
X19944945Y46814695D01*
X19944943Y46814692D01*
X19878137Y46680527D01*
X19822009Y46612021D01*
X19741716Y46574652D01*
X19653161Y46575821D01*
X19573882Y46615297D01*
X19521863Y46680527D01*
X19516316Y46691667D01*
X19455058Y46814689D01*
X19455056Y46814692D01*
X19455054Y46814695D01*
X19320984Y46992232D01*
X19320981Y46992236D01*
X19156562Y47142124D01*
X18967401Y47259247D01*
X18759940Y47339618D01*
X18541243Y47380500D01*
X18318757Y47380500D01*
X18100060Y47339618D01*
X17892599Y47259247D01*
X17892598Y47259247D01*
X17892597Y47259246D01*
X17892595Y47259245D01*
X17703442Y47142127D01*
X17703440Y47142126D01*
X17703438Y47142124D01*
X17539019Y46992236D01*
X17539015Y46992232D01*
X17404945Y46814695D01*
X17404943Y46814692D01*
X17338137Y46680527D01*
X17282009Y46612021D01*
X17201716Y46574652D01*
X17113161Y46575821D01*
X17033882Y46615297D01*
X16981863Y46680527D01*
X16976316Y46691667D01*
X16915058Y46814689D01*
X16915056Y46814692D01*
X16915054Y46814695D01*
X16780984Y46992232D01*
X16780981Y46992236D01*
X16616562Y47142124D01*
X16427401Y47259247D01*
X16219940Y47339618D01*
X16001243Y47380500D01*
X15778757Y47380500D01*
X15560060Y47339618D01*
X15352599Y47259247D01*
X15352598Y47259247D01*
X15352597Y47259246D01*
X15352595Y47259245D01*
X15163442Y47142127D01*
X15163440Y47142126D01*
X15163438Y47142124D01*
X14999019Y46992236D01*
X14999015Y46992232D01*
X14864945Y46814695D01*
X14864943Y46814692D01*
X14798137Y46680527D01*
X14742009Y46612021D01*
X14661716Y46574652D01*
X14573161Y46575821D01*
X14493882Y46615297D01*
X14441863Y46680527D01*
X14436316Y46691667D01*
X14375058Y46814689D01*
X14375056Y46814692D01*
X14375054Y46814695D01*
X14240984Y46992232D01*
X14240981Y46992236D01*
X14076562Y47142124D01*
X13887401Y47259247D01*
X13679940Y47339618D01*
X13461243Y47380500D01*
X13238757Y47380500D01*
X13020060Y47339618D01*
X12812599Y47259247D01*
X12812598Y47259247D01*
X12812597Y47259246D01*
X12812595Y47259245D01*
X12623442Y47142127D01*
X12623440Y47142126D01*
X12623438Y47142124D01*
X12459019Y46992236D01*
X12459015Y46992232D01*
X12324945Y46814695D01*
X12324943Y46814692D01*
X12258137Y46680527D01*
X12202009Y46612021D01*
X12121716Y46574652D01*
X12033161Y46575821D01*
X11953882Y46615297D01*
X11901863Y46680527D01*
X11896316Y46691667D01*
X11835058Y46814689D01*
X11835056Y46814692D01*
X11835054Y46814695D01*
X11700984Y46992232D01*
X11700981Y46992236D01*
X11536562Y47142124D01*
X11347401Y47259247D01*
X11139940Y47339618D01*
X10921243Y47380500D01*
X10698757Y47380500D01*
X10480060Y47339618D01*
X10272599Y47259247D01*
X10272598Y47259247D01*
X10272597Y47259246D01*
X10272595Y47259245D01*
X10083442Y47142127D01*
X10083440Y47142126D01*
X10083438Y47142124D01*
X10043045Y47105301D01*
X9919017Y46992235D01*
X9828304Y46872110D01*
X9760544Y46815084D01*
X9674752Y46793104D01*
X9587919Y46810526D01*
X9517244Y46863897D01*
X9476725Y46942648D01*
X9470499Y46992035D01*
X9470499Y47011519D01*
X9468468Y47024342D01*
X9455646Y47105304D01*
X9398050Y47218342D01*
X9398049Y47218343D01*
X9398048Y47218345D01*
X9308342Y47308051D01*
X9195307Y47365645D01*
X9195304Y47365646D01*
X9195302Y47365647D01*
X9195300Y47365647D01*
X9129818Y47376018D01*
X9101519Y47380500D01*
X9101518Y47380500D01*
X7438481Y47380500D01*
X7344696Y47365646D01*
X7344694Y47365646D01*
X7231655Y47308049D01*
X7141949Y47218343D01*
X7084355Y47105308D01*
X7084353Y47105301D01*
X7069500Y47011519D01*
X7069500Y45348482D01*
X7084354Y45254697D01*
X7084354Y45254695D01*
X7141951Y45141656D01*
X7231657Y45051950D01*
X7344692Y44994356D01*
X7344696Y44994354D01*
X7438481Y44979500D01*
X8680257Y44979501D01*
X8766600Y44959794D01*
X8820971Y44921215D01*
X18122684Y35619502D01*
X18122683Y35619502D01*
X18122685Y35619501D01*
X18122686Y35619500D01*
X18236814Y35553608D01*
X18364108Y35519500D01*
X32497358Y35519500D01*
X32583701Y35499793D01*
X32652942Y35444574D01*
X32675497Y35409199D01*
X32677389Y35405399D01*
X32807219Y35233477D01*
X32807222Y35233473D01*
X32919364Y35131243D01*
X32966436Y35088331D01*
X32966438Y35088330D01*
X32966439Y35088329D01*
X33149602Y34974919D01*
X33149601Y34974919D01*
X33149605Y34974918D01*
X33149609Y34974915D01*
X33251191Y34935562D01*
X33324584Y34885994D01*
X33369202Y34809491D01*
X33376209Y34721205D01*
X33344215Y34638623D01*
X33279559Y34578100D01*
X33251191Y34564439D01*
X33149609Y34525085D01*
X33149607Y34525085D01*
X33149602Y34525082D01*
X32966439Y34411672D01*
X32966434Y34411668D01*
X32807222Y34266528D01*
X32807219Y34266524D01*
X32677389Y34094602D01*
X32675497Y34090801D01*
X32673610Y34088499D01*
X32672544Y34086776D01*
X32672315Y34086918D01*
X32619370Y34022293D01*
X32539078Y33984922D01*
X32497358Y33980500D01*
X3246107Y33980500D01*
X3118815Y33946393D01*
X3118814Y33946392D01*
X3004684Y33880499D01*
X2974972Y33850786D01*
X2899984Y33803667D01*
X2834258Y33792500D01*
X-1380716Y33792500D01*
X-1467059Y33812207D01*
X-1500959Y33832936D01*
X-1624154Y33926359D01*
X-1624166Y33926365D01*
X-1764932Y33981876D01*
X-1764940Y33981878D01*
X-1853393Y33992500D01*
X-1853398Y33992500D01*
X-2319258Y33992500D01*
X-2405601Y34012207D01*
X-2459972Y34050786D01*
X-2560972Y34151786D01*
X-2608091Y34226774D01*
X-2618007Y34314781D01*
X-2588756Y34398374D01*
X-2526132Y34460998D01*
X-2442539Y34490249D01*
X-2420258Y34491500D01*
X-1853394Y34491500D01*
X-1809167Y34496812D01*
X-1764936Y34502123D01*
X-1624158Y34557639D01*
X-1503578Y34649078D01*
X-1503579Y34649078D01*
X-1500959Y34651064D01*
X-1420253Y34687533D01*
X-1380716Y34691500D01*
X2427891Y34691500D01*
X2427892Y34691500D01*
X2545617Y34723045D01*
X2634113Y34726356D01*
X2658603Y34720088D01*
X2862049Y34653985D01*
X3079778Y34619500D01*
X3300222Y34619500D01*
X3517951Y34653985D01*
X3727606Y34722105D01*
X3924022Y34822185D01*
X4102365Y34951758D01*
X4258242Y35107635D01*
X4387815Y35285978D01*
X4487895Y35482394D01*
X4556015Y35692049D01*
X4590500Y35909778D01*
X4590500Y38670222D01*
X4590500Y39940222D01*
X4590500Y42480222D01*
X4590500Y43750222D01*
X4556015Y43967951D01*
X4540121Y44016867D01*
X4487897Y44177600D01*
X4487896Y44177601D01*
X4487895Y44177606D01*
X4387815Y44374022D01*
X4258242Y44552365D01*
X4102365Y44708242D01*
X3924022Y44837815D01*
X3727606Y44937895D01*
X3727604Y44937896D01*
X3727599Y44937898D01*
X3517960Y45006013D01*
X3517949Y45006016D01*
X3300222Y45040500D01*
X3079778Y45040500D01*
X2862050Y45006016D01*
X2862039Y45006013D01*
X2652400Y44937898D01*
X2652387Y44937892D01*
X2455976Y44837814D01*
X2277632Y44708240D01*
X2121760Y44552368D01*
X1992186Y44374024D01*
X1892108Y44177613D01*
X1892102Y44177600D01*
X1823987Y43967961D01*
X1823984Y43967950D01*
X1789500Y43750222D01*
X1789500Y35909780D01*
X1789710Y35907111D01*
X1789500Y35905682D01*
X1789500Y35901959D01*
X1788953Y35901959D01*
X1776837Y35819488D01*
X1727220Y35746128D01*
X1650688Y35701561D01*
X1591323Y35692500D01*
X-1380716Y35692500D01*
X-1467059Y35712207D01*
X-1500959Y35732936D01*
X-1624154Y35826359D01*
X-1624166Y35826365D01*
X-1764932Y35881876D01*
X-1764940Y35881878D01*
X-1853393Y35892500D01*
X-1853398Y35892500D01*
X-2319258Y35892500D01*
X-2405601Y35912207D01*
X-2459972Y35950786D01*
X-3183685Y36674499D01*
X-3183684Y36674499D01*
X-3207804Y36688425D01*
X-3297814Y36740392D01*
X-3425108Y36774500D01*
X-3425110Y36774500D01*
X-5096564Y36774500D01*
X-5182907Y36794207D01*
X-5252148Y36849426D01*
X-5290575Y36929218D01*
X-5290575Y37017782D01*
X-5259293Y37084998D01*
X-5260231Y37085578D01*
X-5255392Y37093395D01*
X-5255391Y37093398D01*
X-5255388Y37093401D01*
X-5159357Y37286258D01*
X-5100399Y37493476D01*
X-5080520Y37708000D01*
X-5100399Y37922524D01*
X-5159357Y38129742D01*
X-5197551Y38206447D01*
X-5255389Y38322602D01*
X-5385223Y38494528D01*
X-5544435Y38639668D01*
X-5544440Y38639672D01*
X-5727603Y38753082D01*
X-5727602Y38753082D01*
X-5727608Y38753085D01*
X-5727609Y38753085D01*
X-5833068Y38793940D01*
X-5928503Y38830912D01*
X-5928502Y38830912D01*
X-6034392Y38850706D01*
X-6140279Y38870500D01*
X-6355721Y38870500D01*
X-6440431Y38854665D01*
X-6567499Y38830912D01*
X-6768399Y38753082D01*
X-6951561Y38639672D01*
X-6951566Y38639668D01*
X-7110778Y38494528D01*
X-7240612Y38322602D01*
X-7319862Y38163443D01*
X-7375990Y38094937D01*
X-7456283Y38057567D01*
X-7544838Y38058736D01*
X-7624117Y38098212D01*
X-7676138Y38163443D01*
X-7755389Y38322602D01*
X-7885223Y38494528D01*
X-8044435Y38639668D01*
X-8044440Y38639672D01*
X-8227603Y38753082D01*
X-8227602Y38753082D01*
X-8227608Y38753085D01*
X-8227609Y38753085D01*
X-8333068Y38793940D01*
X-8428503Y38830912D01*
X-8428502Y38830912D01*
X-8534392Y38850706D01*
X-8640279Y38870500D01*
X-8855721Y38870500D01*
X-8940431Y38854665D01*
X-9067499Y38830912D01*
X-9268399Y38753082D01*
X-9451561Y38639672D01*
X-9451566Y38639668D01*
X-9514435Y38582355D01*
X-9591520Y38538750D01*
X-9679891Y38532909D01*
X-9762044Y38565990D01*
X-9821708Y38631439D01*
X-9847067Y38716294D01*
X-9847500Y38729418D01*
X-9847500Y39986583D01*
X-9827793Y40072926D01*
X-9772574Y40142167D01*
X-9692782Y40180594D01*
X-9604218Y40180594D01*
X-9524426Y40142167D01*
X-9514440Y40133650D01*
X-9451564Y40076331D01*
X-9451562Y40076330D01*
X-9451561Y40076329D01*
X-9268398Y39962919D01*
X-9268399Y39962919D01*
X-9268395Y39962918D01*
X-9268391Y39962915D01*
X-9067496Y39885088D01*
X-8855721Y39845500D01*
X-8855719Y39845500D01*
X-8640281Y39845500D01*
X-8640279Y39845500D01*
X-8428504Y39885088D01*
X-8227609Y39962915D01*
X-8227604Y39962919D01*
X-8227602Y39962919D01*
X-8142581Y40015562D01*
X-8044436Y40076331D01*
X-7885222Y40221474D01*
X-7755388Y40393401D01*
X-7676138Y40552557D01*
X-7620011Y40621064D01*
X-7539718Y40658434D01*
X-7451162Y40657265D01*
X-7371883Y40617790D01*
X-7319862Y40552557D01*
X-7240613Y40393401D01*
X-7110778Y40221473D01*
X-6975481Y40098134D01*
X-6951564Y40076331D01*
X-6951562Y40076330D01*
X-6951561Y40076329D01*
X-6768398Y39962919D01*
X-6768399Y39962919D01*
X-6768395Y39962918D01*
X-6768391Y39962915D01*
X-6567496Y39885088D01*
X-6355721Y39845500D01*
X-6355719Y39845500D01*
X-6140281Y39845500D01*
X-6140279Y39845500D01*
X-5928504Y39885088D01*
X-5727609Y39962915D01*
X-5727604Y39962919D01*
X-5727602Y39962919D01*
X-5642581Y40015562D01*
X-5544436Y40076331D01*
X-5385222Y40221474D01*
X-5260127Y40387125D01*
X-5255389Y40393399D01*
X-5231938Y40440496D01*
X-5159357Y40586258D01*
X-5100399Y40793476D01*
X-5080520Y41008000D01*
X-5100399Y41222524D01*
X-5159357Y41429742D01*
X-5185406Y41482055D01*
X-5255389Y41622602D01*
X-5385223Y41794528D01*
X-5544435Y41939668D01*
X-5544440Y41939672D01*
X-5727603Y42053082D01*
X-5727602Y42053082D01*
X-5727608Y42053085D01*
X-5727609Y42053085D01*
X-5813302Y42086283D01*
X-5928503Y42130912D01*
X-5928502Y42130912D01*
X-6034392Y42150706D01*
X-6140279Y42170500D01*
X-6355721Y42170500D01*
X-6440431Y42154665D01*
X-6567499Y42130912D01*
X-6768399Y42053082D01*
X-6951561Y41939672D01*
X-6951566Y41939668D01*
X-7110778Y41794528D01*
X-7240612Y41622602D01*
X-7319862Y41463443D01*
X-7375990Y41394937D01*
X-7456283Y41357567D01*
X-7544838Y41358736D01*
X-7624117Y41398212D01*
X-7676138Y41463443D01*
X-7755389Y41622602D01*
X-7885223Y41794528D01*
X-8044435Y41939668D01*
X-8044440Y41939672D01*
X-8227603Y42053082D01*
X-8227602Y42053082D01*
X-8227608Y42053085D01*
X-8227609Y42053085D01*
X-8313302Y42086283D01*
X-8428503Y42130912D01*
X-8428502Y42130912D01*
X-8534392Y42150706D01*
X-8640279Y42170500D01*
X-8855721Y42170500D01*
X-8940431Y42154665D01*
X-9067499Y42130912D01*
X-9268399Y42053082D01*
X-9451561Y41939672D01*
X-9451566Y41939668D01*
X-9610778Y41794528D01*
X-9610779Y41794527D01*
X-9697431Y41679782D01*
X-9765191Y41622756D01*
X-9850984Y41600777D01*
X-9937817Y41618199D01*
X-10008491Y41671571D01*
X-10033545Y41709364D01*
X-10036214Y41714602D01*
X-10050185Y41742022D01*
X-10179758Y41920365D01*
X-10335635Y42076242D01*
X-10335636Y42076243D01*
X-10591214Y42331821D01*
X-10638333Y42406809D01*
X-10649500Y42472535D01*
X-10649500Y43750222D01*
X-10683985Y43967950D01*
X-10683988Y43967961D01*
X-10752103Y44177600D01*
X-10752104Y44177601D01*
X-10752105Y44177606D01*
X-10852185Y44374022D01*
X-10981758Y44552365D01*
X-11137635Y44708242D01*
X-11315978Y44837815D01*
X-11512394Y44937895D01*
X-11512396Y44937896D01*
X-11512401Y44937898D01*
X-11722040Y45006013D01*
X-11722051Y45006016D01*
X-11939778Y45040500D01*
X-12160222Y45040500D01*
X-12377950Y45006016D01*
X-12377961Y45006013D01*
X-12587600Y44937898D01*
X-12587613Y44937892D01*
X-12784024Y44837814D01*
X-12962368Y44708240D01*
X-13118240Y44552368D01*
X-13247814Y44374024D01*
X-13347892Y44177613D01*
X-13347898Y44177600D01*
X-13416013Y43967961D01*
X-13416016Y43967950D01*
X-13450500Y43750222D01*
X-13450500Y41927299D01*
X-13450501Y41927269D01*
X-13450501Y41699773D01*
X-13422302Y41521741D01*
X-13416017Y41482055D01*
X-13347895Y41272393D01*
X-13347892Y41272388D01*
X-13247815Y41075978D01*
X-13118242Y40897635D01*
X-13014087Y40793480D01*
X-12955416Y40734809D01*
X-12955405Y40734799D01*
X-12706786Y40486180D01*
X-12659667Y40411192D01*
X-12648500Y40345466D01*
X-12648500Y37597779D01*
X-12614016Y37380051D01*
X-12614013Y37380040D01*
X-12545898Y37170401D01*
X-12545896Y37170396D01*
X-12545895Y37170394D01*
X-12445815Y36973978D01*
X-12316242Y36795635D01*
X-12316240Y36795633D01*
X-12289925Y36769318D01*
X-12242806Y36694330D01*
X-12232890Y36606323D01*
X-12262141Y36522730D01*
X-12289925Y36487890D01*
X-12357697Y36420119D01*
X-12357700Y36420115D01*
X-12366459Y36404944D01*
X-12398080Y36363736D01*
X-12599028Y36162786D01*
X-12674017Y36115668D01*
X-12739743Y36104500D01*
X-13465694Y36104500D01*
X-13496424Y36102082D01*
X-13502570Y36101598D01*
X-13660400Y36055744D01*
X-13801864Y35972083D01*
X-13918083Y35855864D01*
X-14001744Y35714400D01*
X-14047598Y35556570D01*
X-14050500Y35519689D01*
X-14050500Y34793742D01*
X-14070207Y34707399D01*
X-14108786Y34653028D01*
X-17260499Y31501316D01*
X-17263616Y31495917D01*
X-17326392Y31387186D01*
X-17360500Y31259892D01*
X-17360500Y31259890D01*
X-17360500Y25820020D01*
X-17380207Y25733677D01*
X-17435426Y25664436D01*
X-17460403Y25649436D01*
X-17459623Y25648117D01*
X-17591702Y25570007D01*
X-17676053Y25543018D01*
X-17763760Y25555300D01*
X-17837453Y25604422D01*
X-17882535Y25680652D01*
X-17892000Y25741295D01*
X-17892000Y52632352D01*
X-17160500Y52632352D01*
X-17160500Y52427648D01*
X-17141905Y52310245D01*
X-17128478Y52225471D01*
X-17128477Y52225464D01*
X-17065223Y52030788D01*
X-17065215Y52030769D01*
X-16972294Y51848401D01*
X-16972288Y51848391D01*
X-16972287Y51848390D01*
X-16851966Y51682781D01*
X-16707219Y51538034D01*
X-16541610Y51417713D01*
X-16541600Y51417707D01*
X-16359232Y51324786D01*
X-16359225Y51324784D01*
X-16359219Y51324780D01*
X-16164534Y51261523D01*
X-15962352Y51229500D01*
X-15962351Y51229500D01*
X-15757649Y51229500D01*
X-15757648Y51229500D01*
X-15555466Y51261523D01*
X-15360781Y51324780D01*
X-15360769Y51324786D01*
X-15178401Y51417707D01*
X-15178397Y51417710D01*
X-15178390Y51417713D01*
X-15012781Y51538034D01*
X-14868034Y51682781D01*
X-14747713Y51848390D01*
X-14734358Y51874599D01*
X-14654786Y52030769D01*
X-14654786Y52030771D01*
X-14654780Y52030781D01*
X-14591523Y52225466D01*
X-14559500Y52427648D01*
X-14559500Y52632352D01*
X-14591523Y52834534D01*
X-14654780Y53029219D01*
X-14654784Y53029225D01*
X-14654786Y53029232D01*
X-14747707Y53211600D01*
X-14747713Y53211610D01*
X-14850029Y53352437D01*
X-14868034Y53377219D01*
X-15012781Y53521966D01*
X-15178390Y53642287D01*
X-15178389Y53642287D01*
X-15178391Y53642288D01*
X-15178401Y53642294D01*
X-15360769Y53735215D01*
X-15360788Y53735223D01*
X-15555464Y53798477D01*
X-15555471Y53798478D01*
X-15670265Y53816660D01*
X-15757648Y53830500D01*
X-15962352Y53830500D01*
X-16023365Y53820837D01*
X-16164530Y53798478D01*
X-16164537Y53798477D01*
X-16359213Y53735223D01*
X-16359232Y53735215D01*
X-16541600Y53642294D01*
X-16541610Y53642288D01*
X-16707217Y53521968D01*
X-16707221Y53521965D01*
X-16851965Y53377221D01*
X-16851968Y53377217D01*
X-16972288Y53211610D01*
X-16972294Y53211600D01*
X-17065215Y53029232D01*
X-17065223Y53029213D01*
X-17128477Y52834537D01*
X-17128477Y52834534D01*
X-17160500Y52632352D01*
X-17892000Y52632352D01*
X-17892000Y54225572D01*
X-17872293Y54311915D01*
X-17833714Y54366286D01*
X-17442286Y54757714D01*
X-17367298Y54804833D01*
X-17301572Y54816000D01*
X-13261482Y54816000D01*
X-13175139Y54796293D01*
G37*
%TD.AperFunction*%
%TA.AperFunction,Conductor*%
G36*
X34986838Y28089430D02*
G01*
X35066117Y28049954D01*
X35118138Y27984723D01*
X35121356Y27978259D01*
X35121357Y27978258D01*
X35164308Y27892000D01*
X35217389Y27785399D01*
X35347222Y27613473D01*
X35406991Y27558987D01*
X35506436Y27468331D01*
X35506438Y27468330D01*
X35506439Y27468329D01*
X35689602Y27354919D01*
X35689601Y27354919D01*
X35689605Y27354918D01*
X35689609Y27354915D01*
X35791191Y27315562D01*
X35864584Y27265994D01*
X35909202Y27189491D01*
X35916209Y27101205D01*
X35884215Y27018623D01*
X35819559Y26958100D01*
X35791191Y26944439D01*
X35689609Y26905085D01*
X35689607Y26905085D01*
X35689602Y26905082D01*
X35506439Y26791672D01*
X35506434Y26791668D01*
X35347222Y26646528D01*
X35217388Y26474601D01*
X35118138Y26275278D01*
X35062010Y26206771D01*
X34981717Y26169402D01*
X34893161Y26170571D01*
X34813883Y26210047D01*
X34761862Y26275278D01*
X34662611Y26474601D01*
X34532777Y26646528D01*
X34373565Y26791668D01*
X34373560Y26791672D01*
X34190397Y26905082D01*
X34190398Y26905082D01*
X34190392Y26905085D01*
X34190391Y26905085D01*
X34088806Y26944439D01*
X34015415Y26994006D01*
X33970797Y27070508D01*
X33963790Y27158794D01*
X33995783Y27241377D01*
X34060439Y27301900D01*
X34088803Y27315560D01*
X34190391Y27354915D01*
X34190396Y27354919D01*
X34190398Y27354919D01*
X34265888Y27401661D01*
X34373564Y27468331D01*
X34532778Y27613474D01*
X34662612Y27785401D01*
X34758643Y27978258D01*
X34758643Y27978259D01*
X34761862Y27984723D01*
X34817990Y28053229D01*
X34898283Y28090599D01*
X34986838Y28089430D01*
G37*
%TD.AperFunction*%
%TA.AperFunction,Conductor*%
G36*
X34721740Y30241812D02*
G01*
X34767097Y30306589D01*
X34767098Y30306590D01*
X34814912Y30409127D01*
X34869263Y30479052D01*
X34948570Y30518470D01*
X35037126Y30519575D01*
X35117392Y30482147D01*
X35173406Y30413729D01*
X35217388Y30325399D01*
X35347222Y30153473D01*
X35433512Y30074810D01*
X35506436Y30008331D01*
X35506438Y30008330D01*
X35506439Y30008329D01*
X35689602Y29894919D01*
X35689601Y29894919D01*
X35689605Y29894918D01*
X35689609Y29894915D01*
X35791191Y29855562D01*
X35864584Y29805994D01*
X35909202Y29729491D01*
X35916209Y29641205D01*
X35884215Y29558623D01*
X35819559Y29498100D01*
X35791191Y29484439D01*
X35689609Y29445085D01*
X35689607Y29445085D01*
X35689602Y29445082D01*
X35506439Y29331672D01*
X35506434Y29331668D01*
X35347222Y29186528D01*
X35217388Y29014601D01*
X35118138Y28815278D01*
X35062010Y28746771D01*
X34981717Y28709402D01*
X34893161Y28710571D01*
X34813883Y28750047D01*
X34761862Y28815278D01*
X34662611Y29014601D01*
X34532777Y29186528D01*
X34373565Y29331668D01*
X34373564Y29331669D01*
X34249791Y29408306D01*
X34185600Y29448052D01*
X34122565Y29510262D01*
X34092764Y29593660D01*
X34102099Y29681730D01*
X34148722Y29757028D01*
X34206262Y29797601D01*
X34303406Y29842899D01*
X34303411Y29842903D01*
X34368188Y29888260D01*
X33697448Y30559000D01*
X33720160Y30559000D01*
X33817061Y30584964D01*
X33903940Y30635124D01*
X33974876Y30706060D01*
X34025036Y30792939D01*
X34051000Y30889840D01*
X34051000Y30912553D01*
X34721740Y30241812D01*
G37*
%TD.AperFunction*%
%TA.AperFunction,Conductor*%
G36*
X34986838Y33169430D02*
G01*
X35066117Y33129954D01*
X35118138Y33064723D01*
X35121356Y33058259D01*
X35121357Y33058258D01*
X35160477Y32979694D01*
X35217389Y32865399D01*
X35347222Y32693473D01*
X35482519Y32570134D01*
X35506436Y32548331D01*
X35506438Y32548330D01*
X35506439Y32548329D01*
X35689602Y32434919D01*
X35689601Y32434919D01*
X35689605Y32434918D01*
X35689609Y32434915D01*
X35791191Y32395562D01*
X35864584Y32345994D01*
X35909202Y32269491D01*
X35916209Y32181205D01*
X35884215Y32098623D01*
X35819559Y32038100D01*
X35791191Y32024439D01*
X35689609Y31985085D01*
X35689607Y31985085D01*
X35689602Y31985082D01*
X35506439Y31871672D01*
X35506434Y31871668D01*
X35347222Y31726528D01*
X35217385Y31554598D01*
X35217385Y31554597D01*
X35173405Y31466272D01*
X35117278Y31397765D01*
X35036984Y31360396D01*
X34948429Y31361565D01*
X34869150Y31401041D01*
X34814912Y31470874D01*
X34767100Y31573407D01*
X34767098Y31573411D01*
X34721741Y31638189D01*
X34721740Y31638190D01*
X34051000Y30967449D01*
X34051000Y30990160D01*
X34025036Y31087061D01*
X33974876Y31173940D01*
X33903940Y31244876D01*
X33817061Y31295036D01*
X33720160Y31321000D01*
X33697448Y31321000D01*
X34368188Y31991741D01*
X34368187Y31991742D01*
X34303409Y32037100D01*
X34206261Y32082400D01*
X34136336Y32136750D01*
X34096918Y32216058D01*
X34095813Y32304614D01*
X34133241Y32384880D01*
X34185601Y32431949D01*
X34349149Y32533214D01*
X34373564Y32548331D01*
X34532778Y32693474D01*
X34662612Y32865401D01*
X34758643Y33058258D01*
X34758643Y33058259D01*
X34761862Y33064723D01*
X34817990Y33133229D01*
X34898283Y33170599D01*
X34986838Y33169430D01*
G37*
%TD.AperFunction*%
%TA.AperFunction,Conductor*%
G36*
X-5940600Y34621524D02*
G01*
X-5877978Y34558899D01*
X-5861133Y34510755D01*
X-5843796Y34492000D01*
X-5253910Y34492000D01*
X-5242031Y34491645D01*
X-5239606Y34491500D01*
X-4633000Y34491500D01*
X-4546657Y34471793D01*
X-4477416Y34416574D01*
X-4438989Y34336782D01*
X-4434000Y34292500D01*
X-4434000Y34191500D01*
X-4453707Y34105157D01*
X-4508926Y34035916D01*
X-4588718Y33997489D01*
X-4633000Y33992500D01*
X-5239606Y33992500D01*
X-5242031Y33992355D01*
X-5253910Y33992000D01*
X-5843796Y33992000D01*
X-5843600Y33989510D01*
X-5843600Y33989509D01*
X-5841134Y33981023D01*
X-5835968Y33892611D01*
X-5869674Y33810712D01*
X-5935577Y33751549D01*
X-6020623Y33726839D01*
X-6032231Y33726500D01*
X-6267776Y33726500D01*
X-6354119Y33746207D01*
X-6423360Y33801426D01*
X-6461787Y33881218D01*
X-6461787Y33969782D01*
X-6431550Y34038545D01*
X-6342953Y34166900D01*
X-6282415Y34326526D01*
X-6266922Y34454122D01*
X-6236953Y34537457D01*
X-6210085Y34570850D01*
X-6187189Y34593745D01*
X-6112199Y34640862D01*
X-6024193Y34650776D01*
X-5940600Y34621524D01*
G37*
%TD.AperFunction*%
%TA.AperFunction,Conductor*%
G36*
X35829000Y38509840D02*
G01*
X35854964Y38412939D01*
X35905124Y38326060D01*
X35976060Y38255124D01*
X36062939Y38204964D01*
X36159840Y38179000D01*
X36182553Y38179000D01*
X35511811Y37508260D01*
X35511811Y37508259D01*
X35576585Y37462904D01*
X35673738Y37417601D01*
X35743663Y37363250D01*
X35783081Y37283943D01*
X35784186Y37195386D01*
X35746758Y37115120D01*
X35694399Y37068052D01*
X35506435Y36951669D01*
X35506434Y36951668D01*
X35347222Y36806528D01*
X35217388Y36634601D01*
X35118138Y36435278D01*
X35062010Y36366771D01*
X34981717Y36329402D01*
X34893161Y36330571D01*
X34813883Y36370047D01*
X34761862Y36435278D01*
X34662611Y36634601D01*
X34532777Y36806528D01*
X34373565Y36951668D01*
X34373560Y36951672D01*
X34190397Y37065082D01*
X34190398Y37065082D01*
X34190392Y37065085D01*
X34190391Y37065085D01*
X34088806Y37104439D01*
X34015415Y37154006D01*
X33970797Y37230508D01*
X33963790Y37318794D01*
X33995783Y37401377D01*
X34060439Y37461900D01*
X34088803Y37475560D01*
X34190391Y37514915D01*
X34190396Y37514919D01*
X34190398Y37514919D01*
X34324219Y37597778D01*
X34373564Y37628331D01*
X34532778Y37773474D01*
X34662612Y37945401D01*
X34706593Y38033727D01*
X34762719Y38102234D01*
X34843012Y38139605D01*
X34931568Y38138437D01*
X35010847Y38098961D01*
X35065087Y38029127D01*
X35112899Y37926592D01*
X35112900Y37926591D01*
X35158258Y37861813D01*
X35158259Y37861812D01*
X35829000Y38532553D01*
X35829000Y38509840D01*
G37*
%TD.AperFunction*%
%TA.AperFunction,Conductor*%
G36*
X11227996Y45016795D02*
G01*
X11306205Y44975240D01*
X11316783Y44965403D01*
X18122684Y38159502D01*
X18122683Y38159502D01*
X18122685Y38159501D01*
X18122686Y38159500D01*
X18236814Y38093608D01*
X18364107Y38059500D01*
X18364108Y38059500D01*
X32497358Y38059500D01*
X32583701Y38039793D01*
X32652942Y37984574D01*
X32675497Y37949199D01*
X32677389Y37945399D01*
X32807219Y37773477D01*
X32807222Y37773473D01*
X32942519Y37650134D01*
X32966436Y37628331D01*
X32966438Y37628330D01*
X32966439Y37628329D01*
X33149602Y37514919D01*
X33149601Y37514919D01*
X33149605Y37514918D01*
X33149609Y37514915D01*
X33251191Y37475562D01*
X33324584Y37425994D01*
X33369202Y37349491D01*
X33376209Y37261205D01*
X33344215Y37178623D01*
X33279559Y37118100D01*
X33251191Y37104439D01*
X33149609Y37065085D01*
X33149607Y37065085D01*
X33149602Y37065082D01*
X32966439Y36951672D01*
X32966434Y36951668D01*
X32807222Y36806528D01*
X32807219Y36806524D01*
X32677389Y36634602D01*
X32675497Y36630801D01*
X32673610Y36628499D01*
X32672544Y36626776D01*
X32672315Y36626918D01*
X32619370Y36562293D01*
X32539078Y36524922D01*
X32497358Y36520500D01*
X18719742Y36520500D01*
X18633399Y36540207D01*
X18579028Y36578786D01*
X10513067Y44644747D01*
X10465948Y44719735D01*
X10456032Y44807742D01*
X10485283Y44891335D01*
X10547907Y44953959D01*
X10631500Y44983210D01*
X10690346Y44981073D01*
X10698757Y44979500D01*
X10698760Y44979500D01*
X10921240Y44979500D01*
X10921243Y44979500D01*
X11139505Y45020301D01*
X11227996Y45016795D01*
G37*
%TD.AperFunction*%
%TA.AperFunction,Conductor*%
G36*
X37261740Y37861813D02*
G01*
X37263656Y37861980D01*
X37351388Y37849873D01*
X37425179Y37800899D01*
X37470413Y37724759D01*
X37480000Y37663737D01*
X37480000Y36861014D01*
X37460293Y36774671D01*
X37405074Y36705430D01*
X37325282Y36667003D01*
X37236718Y36667003D01*
X37156926Y36705430D01*
X37122195Y36741089D01*
X37072777Y36806528D01*
X36913565Y36951668D01*
X36913564Y36951669D01*
X36806788Y37017782D01*
X36725600Y37068052D01*
X36662565Y37130262D01*
X36632764Y37213660D01*
X36642099Y37301730D01*
X36688722Y37377028D01*
X36746262Y37417601D01*
X36843406Y37462899D01*
X36843411Y37462903D01*
X36908188Y37508260D01*
X36237448Y38179000D01*
X36260160Y38179000D01*
X36357061Y38204964D01*
X36443940Y38255124D01*
X36514876Y38326060D01*
X36565036Y38412939D01*
X36591000Y38509840D01*
X36591000Y38532553D01*
X37261740Y37861813D01*
G37*
%TD.AperFunction*%
%TA.AperFunction,Conductor*%
G36*
X34986838Y40789430D02*
G01*
X35066117Y40749954D01*
X35118138Y40684723D01*
X35121356Y40678259D01*
X35121357Y40678258D01*
X35143590Y40633608D01*
X35217389Y40485399D01*
X35347222Y40313473D01*
X35406991Y40258987D01*
X35506436Y40168331D01*
X35506438Y40168330D01*
X35506439Y40168329D01*
X35694398Y40051949D01*
X35757434Y39989740D01*
X35787235Y39906341D01*
X35777900Y39818271D01*
X35731278Y39742973D01*
X35673739Y39702401D01*
X35576595Y39657103D01*
X35511811Y39611743D01*
X35511811Y39611742D01*
X36182553Y38941000D01*
X36159840Y38941000D01*
X36062939Y38915036D01*
X35976060Y38864876D01*
X35905124Y38793940D01*
X35854964Y38707061D01*
X35829000Y38610160D01*
X35829000Y38587447D01*
X35158258Y39258189D01*
X35158257Y39258189D01*
X35112899Y39193407D01*
X35065086Y39090872D01*
X35010735Y39020948D01*
X34931427Y38981530D01*
X34842871Y38980427D01*
X34762605Y39017855D01*
X34706593Y39086273D01*
X34662612Y39174600D01*
X34532777Y39346528D01*
X34373565Y39491668D01*
X34373560Y39491672D01*
X34190397Y39605082D01*
X34190398Y39605082D01*
X34190392Y39605085D01*
X34190391Y39605085D01*
X34088806Y39644439D01*
X34015415Y39694006D01*
X33970797Y39770508D01*
X33963790Y39858794D01*
X33995783Y39941377D01*
X34060439Y40001900D01*
X34088803Y40015560D01*
X34190391Y40054915D01*
X34190396Y40054919D01*
X34190398Y40054919D01*
X34317544Y40133645D01*
X34373564Y40168331D01*
X34532778Y40313474D01*
X34662612Y40485401D01*
X34758643Y40678258D01*
X34758643Y40678259D01*
X34761862Y40684723D01*
X34817990Y40753229D01*
X34898283Y40790599D01*
X34986838Y40789430D01*
G37*
%TD.AperFunction*%
%TA.AperFunction,Conductor*%
G36*
X37362580Y40440496D02*
G01*
X37433255Y40387125D01*
X37473774Y40308374D01*
X37480000Y40258987D01*
X37480000Y39456265D01*
X37460293Y39369922D01*
X37405074Y39300681D01*
X37325282Y39262254D01*
X37263656Y39258022D01*
X37261740Y39258190D01*
X36591000Y38587449D01*
X36591000Y38610160D01*
X36565036Y38707061D01*
X36514876Y38793940D01*
X36443940Y38864876D01*
X36357061Y38915036D01*
X36260160Y38941000D01*
X36237448Y38941000D01*
X36908188Y39611741D01*
X36908187Y39611742D01*
X36843409Y39657100D01*
X36746261Y39702400D01*
X36676336Y39756750D01*
X36636918Y39836058D01*
X36635813Y39924614D01*
X36673241Y40004880D01*
X36725601Y40051949D01*
X36857544Y40133645D01*
X36913564Y40168331D01*
X37072778Y40313474D01*
X37083283Y40327386D01*
X37122195Y40378911D01*
X37189955Y40435938D01*
X37275747Y40457918D01*
X37362580Y40440496D01*
G37*
%TD.AperFunction*%
%TA.AperFunction,Conductor*%
G36*
X13767996Y45016795D02*
G01*
X13846205Y44975240D01*
X13856783Y44965403D01*
X18122684Y40699502D01*
X18122683Y40699502D01*
X18122685Y40699501D01*
X18122686Y40699500D01*
X18236814Y40633608D01*
X18364108Y40599500D01*
X32497358Y40599500D01*
X32583701Y40579793D01*
X32652942Y40524574D01*
X32675497Y40489199D01*
X32677389Y40485399D01*
X32807219Y40313477D01*
X32807222Y40313473D01*
X32866991Y40258987D01*
X32966436Y40168331D01*
X32966438Y40168330D01*
X32966439Y40168329D01*
X33149602Y40054919D01*
X33149601Y40054919D01*
X33149605Y40054918D01*
X33149609Y40054915D01*
X33251191Y40015562D01*
X33324584Y39965994D01*
X33369202Y39889491D01*
X33376209Y39801205D01*
X33344215Y39718623D01*
X33279559Y39658100D01*
X33251191Y39644439D01*
X33149609Y39605085D01*
X33149607Y39605085D01*
X33149602Y39605082D01*
X32966439Y39491672D01*
X32966434Y39491668D01*
X32807222Y39346528D01*
X32807219Y39346524D01*
X32677389Y39174602D01*
X32675497Y39170801D01*
X32673610Y39168499D01*
X32672544Y39166776D01*
X32672315Y39166918D01*
X32619370Y39102293D01*
X32539078Y39064922D01*
X32497358Y39060500D01*
X18719742Y39060500D01*
X18633399Y39080207D01*
X18579028Y39118786D01*
X13053067Y44644747D01*
X13005948Y44719735D01*
X12996032Y44807742D01*
X13025283Y44891335D01*
X13087907Y44953959D01*
X13171500Y44983210D01*
X13230346Y44981073D01*
X13238757Y44979500D01*
X13238760Y44979500D01*
X13461240Y44979500D01*
X13461243Y44979500D01*
X13679505Y45020301D01*
X13767996Y45016795D01*
G37*
%TD.AperFunction*%
%TA.AperFunction,Conductor*%
G36*
X34721740Y42941812D02*
G01*
X34767097Y43006589D01*
X34767098Y43006590D01*
X34814912Y43109127D01*
X34869263Y43179052D01*
X34948570Y43218470D01*
X35037126Y43219575D01*
X35117392Y43182147D01*
X35173406Y43113729D01*
X35217388Y43025399D01*
X35347222Y42853473D01*
X35406991Y42798987D01*
X35506436Y42708331D01*
X35506438Y42708330D01*
X35506439Y42708329D01*
X35689602Y42594919D01*
X35689601Y42594919D01*
X35689605Y42594918D01*
X35689609Y42594915D01*
X35791191Y42555562D01*
X35864584Y42505994D01*
X35909202Y42429491D01*
X35916209Y42341205D01*
X35884215Y42258623D01*
X35819559Y42198100D01*
X35791191Y42184439D01*
X35689609Y42145085D01*
X35689607Y42145085D01*
X35689602Y42145082D01*
X35506439Y42031672D01*
X35506434Y42031668D01*
X35347222Y41886528D01*
X35217388Y41714601D01*
X35118138Y41515278D01*
X35062010Y41446771D01*
X34981717Y41409402D01*
X34893161Y41410571D01*
X34813883Y41450047D01*
X34761862Y41515278D01*
X34662611Y41714601D01*
X34532777Y41886528D01*
X34373565Y42031668D01*
X34373564Y42031669D01*
X34295514Y42079996D01*
X34185600Y42148052D01*
X34122565Y42210262D01*
X34092764Y42293660D01*
X34102099Y42381730D01*
X34148722Y42457028D01*
X34206262Y42497601D01*
X34303406Y42542899D01*
X34303411Y42542903D01*
X34368188Y42588260D01*
X33697448Y43259000D01*
X33720160Y43259000D01*
X33817061Y43284964D01*
X33903940Y43335124D01*
X33974876Y43406060D01*
X34025036Y43492939D01*
X34051000Y43589840D01*
X34051000Y43612553D01*
X34721740Y42941812D01*
G37*
%TD.AperFunction*%
%TA.AperFunction,Conductor*%
G36*
X16307996Y45016795D02*
G01*
X16386205Y44975240D01*
X16396783Y44965403D01*
X18257484Y43104702D01*
X18257483Y43104702D01*
X18257485Y43104701D01*
X18257486Y43104700D01*
X18371614Y43038808D01*
X18498907Y43004700D01*
X31061090Y43004700D01*
X31061092Y43004700D01*
X31188386Y43038808D01*
X31302514Y43104700D01*
X32070779Y43872966D01*
X32145763Y43920082D01*
X32233770Y43929998D01*
X32317363Y43900747D01*
X32379987Y43838124D01*
X32409238Y43754530D01*
X32409732Y43714906D01*
X32403179Y43640002D01*
X32422425Y43420017D01*
X32422426Y43420013D01*
X32479577Y43206724D01*
X32572900Y43006591D01*
X32618258Y42941813D01*
X32618258Y42941812D01*
X33289000Y43612554D01*
X33289000Y43589840D01*
X33314964Y43492939D01*
X33365124Y43406060D01*
X33436060Y43335124D01*
X33522939Y43284964D01*
X33619840Y43259000D01*
X33642553Y43259000D01*
X32971811Y42588260D01*
X32971811Y42588259D01*
X33036585Y42542904D01*
X33133738Y42497601D01*
X33203663Y42443250D01*
X33243081Y42363943D01*
X33244186Y42275386D01*
X33206758Y42195120D01*
X33154399Y42148052D01*
X32966435Y42031669D01*
X32966434Y42031668D01*
X32807222Y41886528D01*
X32807219Y41886524D01*
X32677389Y41714602D01*
X32675497Y41710801D01*
X32673610Y41708499D01*
X32672544Y41706776D01*
X32672315Y41706918D01*
X32619370Y41642293D01*
X32539078Y41604922D01*
X32497358Y41600500D01*
X18719742Y41600500D01*
X18633399Y41620207D01*
X18579028Y41658786D01*
X15593067Y44644747D01*
X15545948Y44719735D01*
X15536032Y44807742D01*
X15565283Y44891335D01*
X15627907Y44953959D01*
X15711500Y44983210D01*
X15770346Y44981073D01*
X15778757Y44979500D01*
X15778760Y44979500D01*
X16001240Y44979500D01*
X16001243Y44979500D01*
X16219505Y45020301D01*
X16307996Y45016795D01*
G37*
%TD.AperFunction*%
%TA.AperFunction,Conductor*%
G36*
X34986838Y45869430D02*
G01*
X35066117Y45829954D01*
X35118138Y45764723D01*
X35217389Y45565399D01*
X35347222Y45393473D01*
X35406991Y45338987D01*
X35506436Y45248331D01*
X35506438Y45248330D01*
X35506439Y45248329D01*
X35689602Y45134919D01*
X35689601Y45134919D01*
X35689605Y45134918D01*
X35689609Y45134915D01*
X35791191Y45095562D01*
X35864584Y45045994D01*
X35909202Y44969491D01*
X35916209Y44881205D01*
X35884215Y44798623D01*
X35819559Y44738100D01*
X35791191Y44724439D01*
X35689609Y44685085D01*
X35689607Y44685085D01*
X35689602Y44685082D01*
X35506439Y44571672D01*
X35506434Y44571668D01*
X35347222Y44426528D01*
X35217385Y44254598D01*
X35217385Y44254597D01*
X35173405Y44166272D01*
X35117278Y44097765D01*
X35036984Y44060396D01*
X34948429Y44061565D01*
X34869150Y44101041D01*
X34814912Y44170874D01*
X34767100Y44273407D01*
X34767098Y44273411D01*
X34721741Y44338189D01*
X34721740Y44338190D01*
X34051000Y43667449D01*
X34051000Y43690160D01*
X34025036Y43787061D01*
X33974876Y43873940D01*
X33903940Y43944876D01*
X33817061Y43995036D01*
X33720160Y44021000D01*
X33697446Y44021000D01*
X34368188Y44691742D01*
X34303409Y44737100D01*
X34206261Y44782400D01*
X34136336Y44836750D01*
X34096918Y44916058D01*
X34095813Y45004614D01*
X34133241Y45084880D01*
X34185601Y45131949D01*
X34231826Y45160571D01*
X34373564Y45248331D01*
X34532778Y45393474D01*
X34662612Y45565401D01*
X34758643Y45758258D01*
X34758643Y45758259D01*
X34761862Y45764723D01*
X34817990Y45833229D01*
X34898283Y45870599D01*
X34986838Y45869430D01*
G37*
%TD.AperFunction*%
%TA.AperFunction,Conductor*%
G36*
X32317363Y48980747D02*
G01*
X32379987Y48918123D01*
X32409238Y48834530D01*
X32409732Y48794906D01*
X32403179Y48720002D01*
X32422425Y48500017D01*
X32422426Y48500013D01*
X32479577Y48286724D01*
X32572900Y48086591D01*
X32618258Y48021813D01*
X32618258Y48021812D01*
X33289000Y48692554D01*
X33289000Y48669840D01*
X33314964Y48572939D01*
X33365124Y48486060D01*
X33436060Y48415124D01*
X33522939Y48364964D01*
X33619840Y48339000D01*
X33642553Y48339000D01*
X32971811Y47668260D01*
X32971811Y47668259D01*
X33036585Y47622904D01*
X33133738Y47577601D01*
X33203663Y47523250D01*
X33243081Y47443943D01*
X33244186Y47355386D01*
X33206758Y47275120D01*
X33154399Y47228052D01*
X32966435Y47111669D01*
X32966434Y47111668D01*
X32807222Y46966528D01*
X32677388Y46794602D01*
X32581356Y46601742D01*
X32522399Y46394524D01*
X32522398Y46394521D01*
X32502520Y46180001D01*
X32502520Y46180000D01*
X32522398Y45965481D01*
X32522401Y45965467D01*
X32540291Y45902586D01*
X32544964Y45814146D01*
X32510800Y45732437D01*
X32489601Y45707417D01*
X30846172Y44063986D01*
X30771184Y44016867D01*
X30705458Y44005700D01*
X18854542Y44005700D01*
X18768199Y44025407D01*
X18713828Y44063986D01*
X18133067Y44644747D01*
X18085948Y44719735D01*
X18076032Y44807742D01*
X18105283Y44891335D01*
X18167907Y44953959D01*
X18251500Y44983210D01*
X18310346Y44981073D01*
X18318757Y44979500D01*
X18318760Y44979500D01*
X18541240Y44979500D01*
X18541243Y44979500D01*
X18759506Y45020301D01*
X18847997Y45016795D01*
X18926206Y44975240D01*
X18936784Y44965403D01*
X19292540Y44609647D01*
X19292550Y44609636D01*
X19299499Y44602687D01*
X19299500Y44602686D01*
X19392686Y44509500D01*
X19506814Y44443608D01*
X19634107Y44409500D01*
X27385890Y44409500D01*
X27385892Y44409500D01*
X27513186Y44443608D01*
X27627314Y44509500D01*
X32070778Y48952966D01*
X32145763Y49000082D01*
X32233770Y49009998D01*
X32317363Y48980747D01*
G37*
%TD.AperFunction*%
%TA.AperFunction,Conductor*%
G36*
X34721740Y48021812D02*
G01*
X34767097Y48086589D01*
X34767098Y48086590D01*
X34814912Y48189127D01*
X34869263Y48259052D01*
X34948570Y48298470D01*
X35037126Y48299575D01*
X35117392Y48262147D01*
X35173406Y48193729D01*
X35217388Y48105399D01*
X35347222Y47933473D01*
X35406991Y47878987D01*
X35506436Y47788331D01*
X35506438Y47788330D01*
X35506439Y47788329D01*
X35689602Y47674919D01*
X35689601Y47674919D01*
X35689605Y47674918D01*
X35689609Y47674915D01*
X35791191Y47635562D01*
X35864584Y47585994D01*
X35909202Y47509491D01*
X35916209Y47421205D01*
X35884215Y47338623D01*
X35819559Y47278100D01*
X35791191Y47264439D01*
X35689609Y47225085D01*
X35689607Y47225085D01*
X35689602Y47225082D01*
X35506439Y47111672D01*
X35506434Y47111668D01*
X35347222Y46966528D01*
X35217388Y46794601D01*
X35118138Y46595278D01*
X35062010Y46526771D01*
X34981717Y46489402D01*
X34893161Y46490571D01*
X34813883Y46530047D01*
X34761862Y46595278D01*
X34662611Y46794601D01*
X34532777Y46966528D01*
X34373565Y47111668D01*
X34373564Y47111669D01*
X34295514Y47159996D01*
X34185600Y47228052D01*
X34122565Y47290262D01*
X34092764Y47373660D01*
X34102099Y47461730D01*
X34148722Y47537028D01*
X34206262Y47577601D01*
X34303406Y47622899D01*
X34303411Y47622903D01*
X34368188Y47668260D01*
X33697448Y48339000D01*
X33720160Y48339000D01*
X33817061Y48364964D01*
X33903940Y48415124D01*
X33974876Y48486060D01*
X34025036Y48572939D01*
X34051000Y48669840D01*
X34051000Y48692553D01*
X34721740Y48021812D01*
G37*
%TD.AperFunction*%
%TA.AperFunction,Conductor*%
G36*
X34986838Y50949430D02*
G01*
X35066117Y50909954D01*
X35118138Y50844723D01*
X35217389Y50645399D01*
X35347222Y50473473D01*
X35406991Y50418987D01*
X35506436Y50328331D01*
X35506438Y50328330D01*
X35506439Y50328329D01*
X35689602Y50214919D01*
X35689601Y50214919D01*
X35689605Y50214918D01*
X35689609Y50214915D01*
X35791191Y50175562D01*
X35864584Y50125994D01*
X35909202Y50049491D01*
X35916209Y49961205D01*
X35884215Y49878623D01*
X35819559Y49818100D01*
X35791191Y49804439D01*
X35689609Y49765085D01*
X35689607Y49765085D01*
X35689602Y49765082D01*
X35506439Y49651672D01*
X35506434Y49651668D01*
X35347222Y49506528D01*
X35217385Y49334598D01*
X35217385Y49334597D01*
X35173405Y49246272D01*
X35117278Y49177765D01*
X35036984Y49140396D01*
X34948429Y49141565D01*
X34869150Y49181041D01*
X34814912Y49250874D01*
X34767100Y49353407D01*
X34767098Y49353411D01*
X34721741Y49418189D01*
X34721740Y49418190D01*
X34051000Y48747449D01*
X34051000Y48770160D01*
X34025036Y48867061D01*
X33974876Y48953940D01*
X33903940Y49024876D01*
X33817061Y49075036D01*
X33720160Y49101000D01*
X33697446Y49101000D01*
X34368188Y49771742D01*
X34303409Y49817100D01*
X34206261Y49862400D01*
X34136336Y49916750D01*
X34096918Y49996058D01*
X34095813Y50084614D01*
X34133241Y50164880D01*
X34185601Y50211949D01*
X34231826Y50240571D01*
X34373564Y50328331D01*
X34532778Y50473474D01*
X34662612Y50645401D01*
X34758643Y50838258D01*
X34758643Y50838259D01*
X34761862Y50844723D01*
X34817990Y50913229D01*
X34898283Y50950599D01*
X34986838Y50949430D01*
G37*
%TD.AperFunction*%
%TA.AperFunction,Conductor*%
G36*
X10489920Y54045606D02*
G01*
X10437259Y53954394D01*
X10410000Y53852661D01*
X10410000Y53747339D01*
X10437259Y53645606D01*
X10489920Y53554394D01*
X10494314Y53550000D01*
X8585686Y53550000D01*
X8590080Y53554394D01*
X8642741Y53645606D01*
X8670000Y53747339D01*
X8670000Y53852661D01*
X8642741Y53954394D01*
X8590080Y54045606D01*
X8585686Y54050000D01*
X10494314Y54050000D01*
X10489920Y54045606D01*
G37*
%TD.AperFunction*%
%TA.AperFunction,Conductor*%
G36*
X13029920Y54045606D02*
G01*
X12977259Y53954394D01*
X12950000Y53852661D01*
X12950000Y53747339D01*
X12977259Y53645606D01*
X13029920Y53554394D01*
X13034314Y53550000D01*
X11125686Y53550000D01*
X11130080Y53554394D01*
X11182741Y53645606D01*
X11210000Y53747339D01*
X11210000Y53852661D01*
X11182741Y53954394D01*
X11130080Y54045606D01*
X11125686Y54050000D01*
X13034314Y54050000D01*
X13029920Y54045606D01*
G37*
%TD.AperFunction*%
%TA.AperFunction,Conductor*%
G36*
X15569920Y54045606D02*
G01*
X15517259Y53954394D01*
X15490000Y53852661D01*
X15490000Y53747339D01*
X15517259Y53645606D01*
X15569920Y53554394D01*
X15574314Y53550000D01*
X13665686Y53550000D01*
X13670080Y53554394D01*
X13722741Y53645606D01*
X13750000Y53747339D01*
X13750000Y53852661D01*
X13722741Y53954394D01*
X13670080Y54045606D01*
X13665686Y54050000D01*
X15574314Y54050000D01*
X15569920Y54045606D01*
G37*
%TD.AperFunction*%
%TA.AperFunction,Conductor*%
G36*
X18109920Y54045606D02*
G01*
X18057259Y53954394D01*
X18030000Y53852661D01*
X18030000Y53747339D01*
X18057259Y53645606D01*
X18109920Y53554394D01*
X18114314Y53550000D01*
X16205686Y53550000D01*
X16210080Y53554394D01*
X16262741Y53645606D01*
X16290000Y53747339D01*
X16290000Y53852661D01*
X16262741Y53954394D01*
X16210080Y54045606D01*
X16205686Y54050000D01*
X18114314Y54050000D01*
X18109920Y54045606D01*
G37*
%TD.AperFunction*%
%TA.AperFunction,Conductor*%
G36*
X20649920Y54045606D02*
G01*
X20597259Y53954394D01*
X20570000Y53852661D01*
X20570000Y53747339D01*
X20597259Y53645606D01*
X20649920Y53554394D01*
X20654314Y53550000D01*
X18745686Y53550000D01*
X18750080Y53554394D01*
X18802741Y53645606D01*
X18830000Y53747339D01*
X18830000Y53852661D01*
X18802741Y53954394D01*
X18750080Y54045606D01*
X18745686Y54050000D01*
X20654314Y54050000D01*
X20649920Y54045606D01*
G37*
%TD.AperFunction*%
%TD*%
M02*
