M48
; DRILL file {KiCad 8.0.3} date 2024-06-19T13:29:18+0900
; FORMAT={-:-/ absolute / inch / decimal}
; #@! TF.CreationDate,2024-06-19T13:29:18+09:00
; #@! TF.GenerationSoftware,Kicad,Pcbnew,8.0.3
; #@! TF.FileFunction,Plated,1,2,PTH
FMAT,2
INCH
; #@! TA.AperFunction,Plated,PTH,ViaDrill
T1C0.0118
; #@! TA.AperFunction,Plated,PTH,ComponentDrill
T2C0.0300
; #@! TA.AperFunction,Plated,PTH,ComponentDrill
T3C0.0315
; #@! TA.AperFunction,Plated,PTH,ComponentDrill
T4C0.0354
; #@! TA.AperFunction,Plated,PTH,ViaDrill
T5C0.0394
; #@! TA.AperFunction,Plated,PTH,ComponentDrill
T6C0.0433
%
G90
G05
T1
X-0.6244Y1.7181
X-0.6244Y1.5381
X-0.5744Y0.5681
X-0.5744Y0.4681
X-0.5744Y0.3681
X-0.5244Y2.0181
X-0.5244Y1.8181
X-0.5244Y1.0881
X-0.5244Y0.9181
X-0.5244Y0.8181
X-0.5244Y0.7181
X-0.5244Y0.6181
X-0.5244Y0.5181
X-0.5244Y0.4681
X-0.4244Y1.9181
X-0.3244Y2.0181
X-0.3244Y1.8181
X-0.3044Y1.2481
X-0.2744Y1.3581
X-0.2344Y1.3481
X-0.2244Y1.9181
X-0.2244Y1.7181
X-0.1244Y1.8181
X-0.1244Y1.6181
X-0.1244Y1.1181
X-0.0244Y2.1181
X-0.0244Y1.9181
X-0.0244Y1.7181
X-0.0244Y1.5381
X-0.0244Y1.2181
X0.0756Y2.0181
X0.0756Y1.8181
X0.0756Y1.1181
X0.1756Y1.9181
X0.1756Y1.2181
X0.2756Y2.0181
X0.2756Y1.7181
X0.2756Y1.5181
X0.2756Y1.1181
X0.3756Y1.9181
X0.3756Y1.6181
X0.3756Y1.4181
X0.4756Y2.0181
X0.4756Y1.5181
X0.4756Y1.1181
X0.5756Y1.9181
X0.5756Y1.4181
X0.6756Y2.0181
X0.6756Y1.1181
X0.7756Y1.9181
X0.7756Y1.6681
X0.7756Y1.5681
X0.7756Y1.4681
X0.7756Y1.3681
X0.8756Y2.0181
X0.8756Y1.1181
X0.9256Y1.6681
X0.9256Y1.5681
X0.9256Y1.4681
X0.9256Y1.3681
X0.9756Y2.1181
X0.9756Y1.9181
X1.0756Y2.0181
X1.0756Y1.6681
X1.0756Y1.5681
X1.0756Y1.4681
X1.0756Y1.3681
X1.0756Y1.1181
X1.1756Y1.7681
X1.2256Y1.6681
X1.2256Y1.5681
X1.2256Y1.4681
X1.2256Y1.3681
X1.2756Y1.8681
T2
X-0.4744Y2.1181
X-0.4744Y1.7181
X-0.4428Y1.6145
X-0.4428Y1.4846
X-0.3444Y1.6145
X-0.3444Y1.4846
X-0.246Y1.6145
X-0.246Y1.4846
X0.1256Y2.1181
X0.1256Y1.7181
X1.3256Y2.1181
X1.3256Y2.0181
X1.3256Y1.9181
X1.3256Y1.8181
X1.3256Y1.7181
X1.3256Y1.6181
X1.3256Y1.5181
X1.3256Y1.4181
X1.3256Y1.3181
X1.3256Y1.2181
X1.3256Y1.1181
X1.3256Y1.0181
X1.3256Y0.9181
X1.3256Y0.8181
X1.3256Y0.7181
X1.3256Y0.6181
X1.3256Y0.5181
X1.3256Y0.4181
X1.3256Y0.3181
X1.4256Y2.1181
X1.4256Y2.0181
X1.4256Y1.9181
X1.4256Y1.8181
X1.4256Y1.7181
X1.4256Y1.6181
X1.4256Y1.5181
X1.4256Y1.4181
X1.4256Y1.3181
X1.4256Y1.2181
X1.4256Y1.1181
X1.4256Y1.0181
X1.4256Y0.9181
X1.4256Y0.8181
X1.4256Y0.7181
X1.4256Y0.6181
X1.4256Y0.5181
X1.4256Y0.4181
X1.4256Y0.3181
T3
X0.3256Y2.1181
X0.3256Y1.8181
X0.4256Y2.1181
X0.4256Y1.8181
X0.5256Y2.1181
X0.5256Y1.8181
X0.6256Y2.1181
X0.6256Y1.8181
X0.7256Y2.1181
X0.7256Y1.8181
X0.8256Y2.1181
X0.8256Y1.8181
T4
X0.9756Y0.9181
X0.9756Y0.7181
X1.0756Y0.9181
X1.0756Y0.7181
T5
X0.1256Y1.5181
X0.1256Y1.4181
X1.2256Y0.4681
X1.2256Y0.3681
T6
X0.937Y0.5461
X0.937Y0.2902
X1.1142Y0.5461
X1.1142Y0.2902
M30
