%TF.GenerationSoftware,KiCad,Pcbnew,8.0.3*%
%TF.CreationDate,2024-06-19T13:29:18+09:00*%
%TF.ProjectId,yashica8_ver0.1.2,79617368-6963-4613-985f-766572302e31,rev?*%
%TF.SameCoordinates,Original*%
%TF.FileFunction,Soldermask,Bot*%
%TF.FilePolarity,Negative*%
%FSLAX46Y46*%
G04 Gerber Fmt 4.6, Leading zero omitted, Abs format (unit mm)*
G04 Created by KiCad (PCBNEW 8.0.3) date 2024-06-19 13:29:18*
%MOMM*%
%LPD*%
G01*
G04 APERTURE LIST*
G04 Aperture macros list*
%AMRoundRect*
0 Rectangle with rounded corners*
0 $1 Rounding radius*
0 $2 $3 $4 $5 $6 $7 $8 $9 X,Y pos of 4 corners*
0 Add a 4 corners polygon primitive as box body*
4,1,4,$2,$3,$4,$5,$6,$7,$8,$9,$2,$3,0*
0 Add four circle primitives for the rounded corners*
1,1,$1+$1,$2,$3*
1,1,$1+$1,$4,$5*
1,1,$1+$1,$6,$7*
1,1,$1+$1,$8,$9*
0 Add four rect primitives between the rounded corners*
20,1,$1+$1,$2,$3,$4,$5,0*
20,1,$1+$1,$4,$5,$6,$7,0*
20,1,$1+$1,$6,$7,$8,$9,0*
20,1,$1+$1,$8,$9,$2,$3,0*%
G04 Aperture macros list end*
%ADD10R,1.800000X1.800000*%
%ADD11C,1.800000*%
%ADD12C,2.000000*%
%ADD13C,1.524000*%
%ADD14C,2.100000*%
%ADD15R,1.524000X1.524000*%
%ADD16R,1.600000X1.600000*%
%ADD17O,1.600000X1.600000*%
%ADD18RoundRect,0.250000X0.250000X0.750000X-0.250000X0.750000X-0.250000X-0.750000X0.250000X-0.750000X0*%
G04 APERTURE END LIST*
D10*
%TO.C,D2*%
X24780000Y23320000D03*
D11*
X27320000Y23320000D03*
%TD*%
D12*
%TO.C,SW2*%
X23800000Y7370000D03*
X23800000Y13870000D03*
X28300000Y7370000D03*
X28300000Y13870000D03*
%TD*%
D13*
%TO.C,SW3*%
X-11248000Y41008000D03*
X-8748000Y41008000D03*
X-6248000Y41008000D03*
X-11248000Y37708000D03*
X-8748000Y37708000D03*
X-6248000Y37708000D03*
%TD*%
D14*
%TO.C,H3*%
X34940000Y4270000D03*
%TD*%
D15*
%TO.C,J1*%
X36210000Y8080000D03*
D13*
X33670000Y8080000D03*
X36210000Y10620000D03*
X33670000Y10620000D03*
X36210000Y13160000D03*
X33670000Y13160000D03*
X36210000Y15700000D03*
X33670000Y15700000D03*
X36210000Y18240000D03*
X33670000Y18240000D03*
X36210000Y20780000D03*
X33670000Y20780000D03*
X36210000Y23320000D03*
X33670000Y23320000D03*
X36210000Y25860000D03*
X33670000Y25860000D03*
X36210000Y28400000D03*
X33670000Y28400000D03*
X36210000Y30940000D03*
X33670000Y30940000D03*
X36210000Y33480000D03*
X33670000Y33480000D03*
X36210000Y36020000D03*
X33670000Y36020000D03*
X36210000Y38560000D03*
X33670000Y38560000D03*
X36210000Y41100000D03*
X33670000Y41100000D03*
X36210000Y43640000D03*
X33670000Y43640000D03*
X36210000Y46180000D03*
X33670000Y46180000D03*
X36210000Y48720000D03*
X33670000Y48720000D03*
X36210000Y51260000D03*
X33670000Y51260000D03*
X36210000Y53800000D03*
X33670000Y53800000D03*
%TD*%
D14*
%TO.C,H4*%
X29860000Y52530000D03*
%TD*%
D13*
%TO.C,U2*%
X-12050000Y43640000D03*
X-12050000Y53800000D03*
X3190000Y43640000D03*
X3190000Y53800000D03*
%TD*%
D10*
%TO.C,D1*%
X24780000Y18240000D03*
D11*
X27320000Y18240000D03*
%TD*%
D16*
%TO.C,SW1*%
X8270000Y46180000D03*
D17*
X10810000Y46180000D03*
X13350000Y46180000D03*
X15890000Y46180000D03*
X18430000Y46180000D03*
X20970000Y46180000D03*
X20970000Y53800000D03*
X18430000Y53800000D03*
X15890000Y53800000D03*
X13350000Y53800000D03*
X10810000Y53800000D03*
X8270000Y53800000D03*
%TD*%
D14*
%TO.C,H1*%
X-15860000Y52530000D03*
%TD*%
%TO.C,H2*%
X-15860000Y4270000D03*
%TD*%
D18*
%TO.C,J2*%
X-3160000Y52784000D03*
%TD*%
%TO.C,J3*%
X-6208000Y52784000D03*
%TD*%
M02*
